<svg width="68" height="30" viewBox="0 0 68 30" fill="none" xmlns="http://www.w3.org/2000/svg">
<rect y="15" width="7.5" height="7.5" fill="white"/>
<rect x="7.5" y="22.5" width="7.5" height="7.5" fill="white"/>
<rect x="7.5" y="7.5" width="7.5" height="7.5" fill="white"/>
<rect width="7.5" height="7.5" fill="white"/>
<rect x="15" y="15" width="7.5" height="7.5" fill="white"/>
<rect x="22.5" y="7.5" width="7.5" height="7.5" fill="white"/>
<rect x="30" width="7.5" height="7.5" fill="white"/>
<rect x="30" y="15" width="7.5" height="7.5" fill="white"/>
<rect x="22.5" y="22.5" width="7.5" height="7.5" fill="white"/>
<rect x="30" y="15" width="7.5" height="7.5" fill="#29CF96"/>
<rect x="37.5" y="22.5" width="7.5" height="7.5" fill="#29CF96"/>
<rect x="37.5" y="7.5" width="7.5" height="7.5" fill="#29CF96"/>
<rect x="30" width="7.5" height="7.5" fill="#29CF96"/>
<rect x="45" y="15" width="7.5" height="7.5" fill="#29CF96"/>
<rect x="52.5" y="7.5" width="7.5" height="7.5" fill="#29CF96"/>
<rect x="60" width="7.5" height="7.5" fill="#29CF96"/>
<rect x="60" y="15" width="7.5" height="7.5" fill="#29CF96"/>
<rect x="52.5" y="22.5" width="7.5" height="7.5" fill="#29CF96"/>
</svg>
