<svg width="37" height="27" viewBox="0 0 37 27" fill="none" xmlns="http://www.w3.org/2000/svg">
<path d="M30.7269 2.76964C28.3788 1.77345 25.8682 1.04945 23.2434 0.637207C22.9211 1.16569 22.5445 1.87652 22.2848 2.44198C19.4946 2.06147 16.73 2.06147 13.9911 2.44198C13.7315 1.87652 13.3464 1.16569 13.0211 0.637207C10.3935 1.04945 7.87999 1.77611 5.53196 2.77491C0.79596 9.26459 -0.487892 15.5931 0.154035 21.8317C3.2952 23.9588 6.33937 25.251 9.33216 26.0965C10.0711 25.1743 10.7301 24.194 11.2979 23.1608C10.2166 22.7883 9.18095 22.3285 8.2024 21.7947C8.462 21.6203 8.71594 21.438 8.96127 21.2504C14.9298 23.7818 21.4147 23.7818 27.3118 21.2504C27.5601 21.438 27.8139 21.6203 28.0707 21.7947C27.0893 22.3311 26.0508 22.7909 24.9695 23.1635C25.5373 24.194 26.1935 25.177 26.9352 26.0991C29.9309 25.2536 32.9779 23.9615 36.1191 21.8317C36.8723 14.5995 34.8324 8.32918 30.7269 2.76964ZM12.111 17.995C10.3193 17.995 8.84999 16.4783 8.84999 14.6312C8.84999 12.7842 10.2879 11.2649 12.111 11.2649C13.9341 11.2649 15.4034 12.7816 15.372 14.6312C15.3748 16.4783 13.9341 17.995 12.111 17.995ZM24.1621 17.995C22.3704 17.995 20.9011 16.4783 20.9011 14.6312C20.9011 12.7842 22.339 11.2649 24.1621 11.2649C25.9852 11.2649 27.4545 12.7816 27.4231 14.6312C27.4231 16.4783 25.9852 17.995 24.1621 17.995Z" fill="black"/>
</svg>
