<svg width="37" height="27" viewBox="0 0 37 27" fill="none" xmlns="http://www.w3.org/2000/svg">
<path d="M32.1112 13.3064C31.7941 13.3064 31.4822 13.2612 31.1857 13.1732L31.1473 13.1636C31.1141 13.1541 31.0783 13.1446 31.04 13.1327C30.9505 13.1042 30.8559 13.0637 30.7485 13.009L30.7127 12.9923C30.319 12.802 29.9687 12.526 29.6977 12.1953C28.8745 11.1889 28.8771 9.7852 29.7029 8.78118C30.0403 8.37196 30.4877 8.0579 30.999 7.86995L31.0502 7.85091C31.2036 7.78905 31.3161 7.75812 31.4055 7.74623L31.5027 7.73195C31.7021 7.69389 31.9066 7.67485 32.1137 7.67485C33.3486 7.67485 34.3814 7.32035 35.0973 6.64942C35.7594 6.02845 36.1046 5.17432 36.0969 4.17744V0.637207H28.5524V2.96881C28.5524 3.42324 28.5524 3.87766 28.5524 4.32971C28.5524 5.24808 27.995 6.50191 26.9673 6.82072C26.3128 7.02296 25.5024 6.7208 24.8095 6.79455C24.2394 6.85641 23.6872 7.03723 23.2014 7.32273C22.2274 7.89612 21.5678 8.87159 21.4425 9.93746C21.3939 10.3491 21.422 10.656 21.4425 10.8796C21.4655 11.1294 21.4706 11.2056 21.3786 11.453C21.1945 11.9384 20.7982 12.3904 20.2665 12.7259C19.7347 13.0613 19.1237 13.2422 18.5459 13.2422H18.4896H18.4334C17.8556 13.2422 17.242 13.059 16.7128 12.7259C16.181 12.3928 15.7873 11.9407 15.6007 11.453C15.5061 11.2032 15.5138 11.1294 15.5368 10.8796C15.5572 10.656 15.5853 10.3491 15.5368 9.93746C15.4115 8.87159 14.7519 7.89612 13.7778 7.32273C13.2921 7.03723 12.7399 6.85641 12.1697 6.79455C11.4769 6.7208 10.6639 7.02296 10.012 6.82072C8.98678 6.50191 8.42689 5.24808 8.42689 4.32971C8.42689 3.87529 8.42689 3.42086 8.42689 2.96881V0.637207H0.872158V4.17506C0.864488 5.17194 1.20963 6.02607 1.87179 6.64704C2.58763 7.31797 3.61794 7.67247 4.85533 7.67247C5.05986 7.67247 5.26438 7.69151 5.46636 7.72957L5.56351 7.74385C5.65043 7.75575 5.76292 7.78668 5.91887 7.84853L5.97 7.86757C6.48132 8.05552 6.92873 8.36958 7.2662 8.7788C8.09453 9.78282 8.09709 11.1865 7.27131 12.1929C7.00031 12.5236 6.65006 12.7973 6.25634 12.99L6.22055 13.0066C6.11317 13.0613 6.01602 13.1018 5.9291 13.1303C5.89075 13.1422 5.85496 13.1541 5.82172 13.1613L5.78337 13.1708C5.48681 13.2588 5.1749 13.304 4.85789 13.304C2.46747 13.304 0.859375 14.6721 0.859375 16.7063C0.859375 18.2956 1.63914 19.1188 2.29107 19.5304C3.08872 20.0324 4.05 20.1751 4.97038 20.2536L5.03429 20.2608C5.27972 20.2893 5.48425 20.3369 5.72201 20.4154L5.83706 20.4559L5.85751 20.463C6.47877 20.6605 6.99775 21.0626 7.31989 21.5955C7.5014 21.8977 7.62923 22.2926 7.67525 22.7066C7.69315 22.8707 7.70593 23.0278 7.71871 23.1848C7.72894 23.3038 7.73917 23.437 7.75195 23.5702V26.6346H15.2428V23.0254C15.2428 22.0975 14.8644 21.1982 14.1588 20.5439C14.1332 20.5201 14.1076 20.4963 14.0821 20.4749C14.0258 20.4249 13.9747 20.3845 13.9338 20.3512L13.9082 20.3298C13.0952 19.6755 12.0419 19.6588 11.2698 19.6446H11.2622C11.1343 19.6446 11.0116 19.6398 10.9042 19.635L10.7892 19.6184L10.5412 19.566L10.3085 19.4994L10.0554 19.4066C9.79211 19.2948 9.54412 19.1497 9.32681 18.9784L9.27824 18.9403C8.58029 18.3598 8.23515 17.646 8.21981 16.7538C8.21981 16.1186 8.43967 15.5143 8.85384 15.0099C9.25523 14.5174 9.82535 14.151 10.4568 13.9773C11.096 13.8013 12.2899 13.7989 12.8651 13.9678C13.9133 14.2795 14.6573 15.1741 14.7161 16.1947C14.7212 16.278 14.7161 16.3684 14.7136 16.4707C14.7008 16.7705 14.6854 17.1797 14.8721 17.6984C15.3962 19.1402 16.8509 20.1133 18.4922 20.1204C20.1335 20.1133 21.5882 19.1402 22.1123 17.6984C22.299 17.1797 22.2811 16.7705 22.2708 16.4707C22.2657 16.366 22.2632 16.278 22.2683 16.1947C22.3271 15.1741 23.0711 14.2795 24.1193 13.9678C24.6945 13.7965 25.8884 13.8013 26.5276 13.9773C27.159 14.151 27.7292 14.5174 28.1306 15.0099C28.5422 15.5143 28.762 16.1186 28.7646 16.7538C28.7492 17.6437 28.4041 18.3598 27.7062 18.9403L27.6576 18.9784C27.4403 19.1497 27.1923 19.2972 26.929 19.4066L26.6758 19.4994L26.4432 19.566L26.1952 19.6184L26.0802 19.635C25.9728 19.6398 25.8501 19.6422 25.7222 19.6446H25.7146C24.945 19.6565 23.8866 19.6755 23.0762 20.3298L23.0506 20.3512C23.0097 20.3845 22.9586 20.4249 22.9023 20.4749C22.8768 20.4987 22.8512 20.5201 22.8256 20.5439C22.12 21.2006 21.7416 22.0999 21.7416 23.0254V26.6346H29.2324V23.5702C29.2452 23.437 29.2555 23.3038 29.2657 23.1848C29.2785 23.0301 29.2887 22.8707 29.3091 22.7066C29.3552 22.2926 29.483 21.8977 29.6645 21.5955C29.9866 21.0626 30.5082 20.6605 31.1269 20.463L31.1473 20.4559L31.2624 20.4154C31.5001 20.3369 31.7047 20.2893 31.9501 20.2608L32.014 20.2536C32.9344 20.1751 33.8957 20.0324 34.6933 19.5304C35.3478 19.1188 36.125 18.2932 36.125 16.7063C36.125 14.6721 34.5169 13.304 32.1265 13.304L32.1112 13.3064Z" fill="black"/>
</svg>
