<svg width="414" height="63" viewBox="0 0 414 63" fill="none" xmlns="http://www.w3.org/2000/svg">
<path d="M72.7399 62.0175L72.7452 62.0221H62.2601L62.26 16.4968C62.26 14.181 58.9752 13.7563 58.3897 15.9931L46.331 62.0221L26.4189 62.0221L14.3554 15.9931C13.77 13.7563 10.4851 14.1811 10.4851 16.4968L10.4851 62.0221H1.08002e-05L0 1.27702e-05L20.7241 9.13189e-06L34.4987 53.4652C35.0055 55.4403 37.8038 55.4403 38.31 53.4652L52.0164 3.63821e-06L72.7399 0L72.7399 62.0175ZM120.369 39.9852C120.369 53.5292 111.837 62.9999 98.2636 63C84.6901 63 76.2369 53.6131 76.2369 39.9852C76.2369 26.4412 84.7692 17.0546 98.2636 17.0546C111.758 17.0546 120.369 26.4412 120.369 39.9852ZM109.968 39.9852C109.968 30.3567 105.823 24.234 98.2636 24.234C90.7045 24.234 86.559 30.3567 86.559 39.9852C86.559 49.6136 90.7836 55.8153 98.2636 55.8153C105.744 55.8153 109.968 49.6926 109.968 39.9852ZM153.771 18.0373V18.0422L142.809 54.5514C142.244 56.4178 139.608 56.4227 139.042 54.5514L128.007 18.0373L117.846 18.0373L131.42 62.0221H150.437L164.01 18.0373L153.771 18.0373ZM204.489 39.7382C204.489 40.7159 204.405 41.8614 204.243 43.0021V43.007L174.161 43.007C172.916 43.007 171.997 44.1525 172.233 45.382C173.571 52.2997 177.623 55.8203 183.19 55.8203C188.757 55.8203 191.644 53.2922 193.188 49.0458H203.511C200.746 58.4326 193.35 63 183.111 63C169.7 63 161.571 53.3712 161.571 39.9852C161.571 26.5992 169.941 17.0546 183.111 17.0546C196.281 17.0546 204.489 26.0313 204.489 39.7382ZM193.748 33.5069C192.559 27.8483 188.619 24.2389 183.106 24.2389C177.593 24.2389 173.959 27.2164 172.43 33.4575C172.125 34.7019 173.064 35.9066 174.343 35.9066L191.826 35.9066C193.08 35.9066 194.009 34.7413 193.748 33.5069ZM258.133 17.0546C252.236 17.0546 248.381 20.1752 246.079 24.0266C245.292 25.335 243.428 25.3252 242.666 24.0019C240.409 20.0765 236.489 17.0546 230.74 17.0546C226.3 17.0546 223.088 18.763 220.811 21.2713C219.607 22.5947 217.408 21.7158 217.408 19.9234V18.0372H207.332V62.0222H217.492L217.492 36.4795C217.492 28.0756 220.497 24.3229 226.186 24.3229C231.876 24.3229 234.802 28.0756 234.802 36.3165V62.0221H244.963V36.4794C244.963 28.0755 247.968 24.3229 253.658 24.3229C259.347 24.3229 262.274 28.0755 262.274 36.3164V62.022H272.434V34.3562H272.439C272.439 24.3179 267.885 17.0545 258.133 17.0546ZM317.865 39.7382C317.865 40.7159 317.781 41.8614 317.619 43.0021V43.007L287.537 43.007C286.292 43.007 285.373 44.1525 285.609 45.382C286.947 52.2997 290.999 55.8202 296.566 55.8202C302.133 55.8202 305.02 53.2922 306.564 49.0458H316.887C314.123 58.4326 306.726 63 296.487 63C283.076 63 274.947 53.3712 274.947 39.9852C274.947 26.5992 283.317 17.0546 296.487 17.0546C309.658 17.0546 317.865 26.0313 317.865 39.7382ZM307.124 33.5069C305.935 27.8483 301.995 24.2389 296.482 24.2389C290.969 24.2389 287.335 27.2164 285.806 33.4575C285.501 34.7018 286.44 35.9066 287.719 35.9066L305.202 35.9066C306.456 35.9066 307.385 34.7413 307.124 33.5069ZM344.687 17.0597C340.035 17.0597 336.617 18.7878 334.202 21.3703C332.973 22.6837 330.784 21.8393 330.784 20.0371V18.0374L320.708 18.0374V62.0221L330.868 62.0221V36.4796C330.868 28.0757 334.365 24.323 340.133 24.323C345.902 24.323 349.398 27.9918 349.398 36.3166L349.398 62.0221L359.559 62.0221V34.3613C359.559 24.565 354.764 17.0597 344.687 17.0597ZM378.669 54.4377L378.674 54.4328C374.937 54.4328 372.738 53.2082 372.738 48.9668V27.5225C372.738 26.4313 373.619 25.5474 374.705 25.5474L383.139 25.5474V18.0421L374.705 18.0421C373.619 18.0421 372.738 17.1583 372.738 16.0671V7.59895L362.578 7.59895L362.578 49.4606C362.578 58.0277 368.838 62.0267 376.963 62.0267L383.302 62.0267V54.4377H378.669Z" fill="black"/>
<path d="M411.387 16.1848C411.181 16.1848 410.977 16.153 410.783 16.0907L410.758 16.0834C410.736 16.0771 410.713 16.0698 410.688 16.0609C410.63 16.0411 410.567 16.0122 410.496 15.9736L410.473 15.961C410.216 15.8262 409.987 15.6322 409.81 15.3995C409.272 14.6899 409.273 13.7004 409.815 12.9931C410.034 12.7055 410.327 12.4835 410.661 12.351L410.694 12.3372C410.795 12.2944 410.868 12.2712 410.926 12.2639L410.989 12.2535C411.12 12.2269 411.254 12.2133 411.388 12.2133C412.195 12.2133 412.869 11.9632 413.337 11.4904C413.77 11.0528 413.996 10.4503 413.99 9.74797V7.25447L409.06 7.25447V8.89804C409.06 9.21804 409.059 9.53804 409.06 9.85806C409.061 10.5051 408.695 11.3884 408.024 11.6132C407.597 11.7564 407.067 11.5426 406.614 11.595C406.241 11.638 405.88 11.7658 405.563 11.9669C404.925 12.3709 404.495 13.0581 404.412 13.81C404.38 14.1 404.398 14.3162 404.411 14.4742C404.426 14.6503 404.43 14.7032 404.369 14.8788C404.248 15.2214 403.99 15.5399 403.643 15.7751C403.295 16.0104 402.896 16.1397 402.518 16.1397L402.481 16.1392L402.444 16.1397C402.066 16.1397 401.666 16.0104 401.319 15.7751C400.971 15.5402 400.713 15.2214 400.593 14.8788C400.531 14.7032 400.536 14.65 400.55 14.4743C400.563 14.3165 400.581 14.1003 400.55 13.81C400.467 13.0581 400.036 12.3712 399.399 11.9669C399.082 11.7658 398.721 11.638 398.348 11.595C397.894 11.5426 397.365 11.7564 396.938 11.6132C396.267 11.3884 395.901 10.5051 395.902 9.85806C395.903 9.53804 395.902 9.21804 395.902 8.89804V7.25447L390.971 7.25447V9.74799C390.965 10.4503 391.191 11.0528 391.624 11.4904C392.092 11.9635 392.766 12.2133 393.573 12.2133C393.707 12.2133 393.841 12.2269 393.972 12.2535L394.035 12.2639C394.093 12.2715 394.166 12.2947 394.267 12.3372L394.3 12.351C394.634 12.4835 394.927 12.7055 395.146 12.9931C395.687 13.7004 395.689 14.6899 395.151 15.3996C394.974 15.6322 394.745 15.8262 394.488 15.9611L394.464 15.9736C394.394 16.0122 394.331 16.0409 394.273 16.061C394.248 16.0698 394.224 16.0771 394.203 16.0834L394.178 16.0907C393.984 16.1533 393.78 16.1848 393.573 16.1848C392.01 16.1848 390.96 17.1488 390.96 18.5834C390.96 19.7033 391.469 20.2844 391.896 20.5747C392.418 20.9288 393.046 21.0292 393.648 21.0845L393.69 21.0892C393.849 21.1101 393.984 21.1429 394.139 21.1988L394.213 21.2272L394.226 21.2319C394.631 21.3706 394.971 21.6541 395.182 22.0302C395.302 22.2427 395.384 22.521 395.415 22.8134C395.427 22.9284 395.435 23.0397 395.443 23.1498C395.449 23.2335 395.456 23.3274 395.465 23.4218V25.5818H400.36V23.0384C400.36 22.3848 400.112 21.7509 399.651 21.2887C399.635 21.272 399.618 21.2559 399.601 21.2397C399.564 21.2053 399.53 21.176 399.503 21.1528L399.487 21.1385C398.956 20.6774 398.266 20.6651 397.762 20.656H397.757C397.673 20.6544 397.593 20.6529 397.522 20.6495L397.447 20.6377L397.284 20.6015L397.132 20.5543L396.967 20.4886C396.795 20.4101 396.634 20.3078 396.491 20.186L396.459 20.1584C396.003 19.7494 395.777 19.2453 395.767 18.6176C395.768 18.169 395.912 17.7439 396.181 17.3879C396.444 17.041 396.816 16.7828 397.229 16.6608C397.647 16.5374 398.427 16.5343 398.803 16.6548C399.488 16.8741 399.975 17.5047 400.013 18.224C400.016 18.2835 400.014 18.3458 400.011 18.4188C400.003 18.6298 399.993 18.9188 400.114 19.2842C400.457 20.3002 401.407 20.9859 402.48 20.9906C403.553 20.9856 404.503 20.3002 404.846 19.2842C404.967 18.919 404.957 18.6301 404.949 18.4188C404.946 18.3458 404.944 18.2832 404.947 18.224C404.985 17.5047 405.471 16.8741 406.157 16.6548C406.533 16.5343 407.313 16.5374 407.731 16.6608C408.144 16.7828 408.517 17.0413 408.779 17.3879C409.049 17.7439 409.192 18.169 409.193 18.6176C409.183 19.2453 408.957 19.7492 408.501 20.1584L408.469 20.186C408.326 20.3075 408.165 20.41 407.993 20.4886L407.828 20.5543L407.676 20.6015L407.514 20.6377L407.438 20.6495C407.368 20.6529 407.288 20.6544 407.203 20.656H407.198C406.694 20.6651 406.004 20.6774 405.473 21.1385L405.457 21.1528C405.43 21.176 405.396 21.2052 405.359 21.2397C405.342 21.2558 405.325 21.2723 405.309 21.2887C404.848 21.7509 404.6 22.3848 404.6 23.0384V25.5818H409.495V23.4218C409.505 23.3276 409.511 23.2335 409.517 23.1498C409.525 23.04 409.533 22.9286 409.545 22.8134C409.576 22.521 409.659 22.2427 409.778 22.0302C409.989 21.6541 410.329 21.3706 410.734 21.2319L410.747 21.2272L410.821 21.1988C410.976 21.1432 411.111 21.1103 411.27 21.0892L411.312 21.0845C411.914 21.0292 412.542 20.9288 413.064 20.5747C413.491 20.2844 414 19.7033 414 18.5834C414 17.1488 412.95 16.1848 411.387 16.1848L411.387 16.1848Z" fill="black"/>
</svg>
