<svg width="44" height="30" viewBox="0 0 44 30" fill="none" xmlns="http://www.w3.org/2000/svg">
<rect y="3.75" width="1.875" height="1.875" fill="#29CF96"/>
<rect x="1.875" y="5.625" width="1.875" height="1.875" fill="#29CF96"/>
<rect x="1.875" y="1.875" width="1.875" height="1.875" fill="#29CF96"/>
<rect width="1.875" height="1.875" fill="#29CF96"/>
<rect x="3.75" y="3.75" width="1.875" height="1.875" fill="#29CF96"/>
<rect x="5.625" y="1.875" width="1.875" height="1.875" fill="#29CF96"/>
<rect x="7.5" width="1.875" height="1.875" fill="#29CF96"/>
<rect x="7.5" y="3.75" width="1.875" height="1.875" fill="#29CF96"/>
<rect x="5.625" y="5.625" width="1.875" height="1.875" fill="#29CF96"/>
<rect y="18.75" width="1.875" height="1.875" fill="#29CF96"/>
<rect x="1.875" y="20.625" width="1.875" height="1.875" fill="#29CF96"/>
<rect x="1.875" y="16.875" width="1.875" height="1.875" fill="#29CF96"/>
<rect y="15" width="1.875" height="1.875" fill="#29CF96"/>
<rect x="3.75" y="18.75" width="1.875" height="1.875" fill="#29CF96"/>
<rect x="5.625" y="16.875" width="1.875" height="1.875" fill="#29CF96"/>
<rect x="7.5" y="15" width="1.875" height="1.875" fill="#29CF96"/>
<rect x="7.5" y="18.75" width="1.875" height="1.875" fill="#29CF96"/>
<rect x="5.625" y="20.625" width="1.875" height="1.875" fill="#29CF96"/>
<rect x="26.25" y="11.25" width="1.875" height="1.875" fill="#29CF96"/>
<rect x="28.125" y="13.125" width="1.875" height="1.875" fill="#29CF96"/>
<rect x="28.125" y="9.375" width="1.875" height="1.875" fill="#29CF96"/>
<rect x="26.25" y="7.5" width="1.875" height="1.875" fill="#29CF96"/>
<rect x="30" y="11.25" width="1.875" height="1.875" fill="#29CF96"/>
<rect x="31.875" y="9.375" width="1.875" height="1.875" fill="#29CF96"/>
<rect x="33.75" y="7.5" width="1.875" height="1.875" fill="#29CF96"/>
<rect x="33.75" y="11.25" width="1.875" height="1.875" fill="#29CF96"/>
<rect x="31.875" y="13.125" width="1.875" height="1.875" fill="#29CF96"/>
<rect x="26.25" y="26.25" width="1.875" height="1.875" fill="#29CF96"/>
<rect x="28.125" y="28.125" width="1.875" height="1.875" fill="#29CF96"/>
<rect x="28.125" y="24.375" width="1.875" height="1.875" fill="#29CF96"/>
<rect x="26.25" y="22.5" width="1.875" height="1.875" fill="#29CF96"/>
<rect x="30" y="26.25" width="1.875" height="1.875" fill="#29CF96"/>
<rect x="31.875" y="24.375" width="1.875" height="1.875" fill="#29CF96"/>
<rect x="33.75" y="22.5" width="1.875" height="1.875" fill="#29CF96"/>
<rect x="33.75" y="26.25" width="1.875" height="1.875" fill="#29CF96"/>
<rect x="31.875" y="28.125" width="1.875" height="1.875" fill="#29CF96"/>
<rect x="16.875" y="18.75" width="1.875" height="1.875" fill="#29CF96"/>
<rect x="18.7502" y="20.625" width="1.875" height="1.875" fill="#29CF96"/>
<rect x="18.7502" y="16.875" width="1.875" height="1.875" fill="#29CF96"/>
<rect x="16.875" y="15" width="1.875" height="1.875" fill="#29CF96"/>
<rect x="20.6252" y="18.75" width="1.875" height="1.875" fill="#29CF96"/>
<rect x="22.5" y="16.875" width="1.875" height="1.875" fill="#29CF96"/>
<rect x="24.375" y="15" width="1.875" height="1.875" fill="#29CF96"/>
<rect x="24.375" y="18.75" width="1.875" height="1.875" fill="#29CF96"/>
<rect x="22.5" y="20.625" width="1.875" height="1.875" fill="#29CF96"/>
<rect x="33.75" y="18.75" width="1.875" height="1.875" fill="#29CF96"/>
<rect x="35.625" y="20.625" width="1.875" height="1.875" fill="#29CF96"/>
<rect x="35.625" y="16.875" width="1.875" height="1.875" fill="#29CF96"/>
<rect x="33.75" y="15" width="1.875" height="1.875" fill="#29CF96"/>
<rect x="37.5" y="18.75" width="1.875" height="1.875" fill="#29CF96"/>
<rect x="39.375" y="16.875" width="1.875" height="1.875" fill="#29CF96"/>
<rect x="41.25" y="15" width="1.875" height="1.875" fill="#29CF96"/>
<rect x="41.25" y="18.75" width="1.875" height="1.875" fill="#29CF96"/>
<rect x="39.375" y="20.625" width="1.875" height="1.875" fill="#29CF96"/>
<rect x="7.5" y="11.25" width="1.875" height="1.875" fill="#29CF96"/>
<rect x="9.375" y="13.125" width="1.875" height="1.875" fill="#29CF96"/>
<rect x="9.375" y="9.375" width="1.875" height="1.875" fill="#29CF96"/>
<rect x="7.5" y="7.5" width="1.875" height="1.875" fill="#29CF96"/>
<rect x="11.25" y="11.25" width="1.875" height="1.875" fill="#29CF96"/>
<rect x="13.125" y="9.375" width="1.875" height="1.875" fill="#29CF96"/>
<rect x="15" y="7.5" width="1.875" height="1.875" fill="#29CF96"/>
<rect x="15" y="11.25" width="1.875" height="1.875" fill="#29CF96"/>
<rect x="13.125" y="13.125" width="1.875" height="1.875" fill="#29CF96"/>
<rect x="33.75" y="3.75" width="1.875" height="1.875" fill="#29CF96"/>
<rect x="35.625" y="5.625" width="1.875" height="1.875" fill="#29CF96"/>
<rect x="35.625" y="1.875" width="1.875" height="1.875" fill="#29CF96"/>
<rect x="33.75" width="1.875" height="1.875" fill="#29CF96"/>
<rect x="37.5" y="3.75" width="1.875" height="1.875" fill="#29CF96"/>
<rect x="39.375" y="1.875" width="1.875" height="1.875" fill="#29CF96"/>
<rect x="41.25" width="1.875" height="1.875" fill="#29CF96"/>
<rect x="41.25" y="3.75" width="1.875" height="1.875" fill="#29CF96"/>
<rect x="39.375" y="5.625" width="1.875" height="1.875" fill="#29CF96"/>
<rect x="7.5" y="26.25" width="1.875" height="1.875" fill="#29CF96"/>
<rect x="9.375" y="28.125" width="1.875" height="1.875" fill="#29CF96"/>
<rect x="9.375" y="24.375" width="1.875" height="1.875" fill="#29CF96"/>
<rect x="7.5" y="22.5" width="1.875" height="1.875" fill="#29CF96"/>
<rect x="11.25" y="26.25" width="1.875" height="1.875" fill="#29CF96"/>
<rect x="13.125" y="24.375" width="1.875" height="1.875" fill="#29CF96"/>
<rect x="15" y="22.5" width="1.875" height="1.875" fill="#29CF96"/>
<rect x="15" y="26.25" width="1.875" height="1.875" fill="#29CF96"/>
<rect x="13.125" y="28.125" width="1.875" height="1.875" fill="#29CF96"/>
</svg>
