<svg width="417" height="375" viewBox="0 0 417 375" fill="none" xmlns="http://www.w3.org/2000/svg">
<path d="M2.5 0L4.66506 3.75H0.334936L2.5 0Z" fill="#29CF96"/>
<path d="M2.5 20L4.66506 23.75H0.334936L2.5 20Z" fill="#29CF96"/>
<path d="M2.5 40L4.66506 43.75H0.334936L2.5 40Z" fill="#29CF96"/>
<path d="M2.5 60L4.66506 63.75H0.334936L2.5 60Z" fill="#29CF96"/>
<path d="M2.5 80L4.66506 83.75H0.334936L2.5 80Z" fill="#29CF96"/>
<path d="M2.5 100L4.66506 103.75H0.334936L2.5 100Z" fill="#29CF96"/>
<path d="M2.5 120L4.66506 123.75H0.334936L2.5 120Z" fill="#29CF96"/>
<path d="M2.5 140L4.66506 143.75H0.334936L2.5 140Z" fill="#29CF96"/>
<path d="M2.5 160L4.66506 163.75H0.334936L2.5 160Z" fill="#29CF96"/>
<path d="M2.5 180L4.66506 183.75H0.334936L2.5 180Z" fill="#29CF96"/>
<path d="M2.5 200L4.66506 203.75H0.334936L2.5 200Z" fill="#29CF96"/>
<path d="M2.5 220L4.66506 223.75H0.334936L2.5 220Z" fill="#29CF96"/>
<path d="M2.5 240L4.66506 243.75H0.334936L2.5 240Z" fill="#29CF96"/>
<path d="M2.5 260L4.66506 263.75H0.334936L2.5 260Z" fill="#29CF96"/>
<path d="M2.5 280L4.66506 283.75H0.334936L2.5 280Z" fill="#29CF96"/>
<path d="M2.5 300L4.66506 303.75H0.334936L2.5 300Z" fill="#29CF96"/>
<path d="M2.5 320L4.66506 323.75H0.334936L2.5 320Z" fill="#29CF96"/>
<path d="M2.5 340L4.66506 343.75H0.334936L2.5 340Z" fill="#29CF96"/>
<path d="M2.5 360L4.66506 363.75H0.334936L2.5 360Z" fill="#29CF96"/>
<path d="M414.5 15L412.335 11.25L416.665 11.25L414.5 15Z" fill="#29CF96"/>
<path d="M414.5 35L412.335 31.25L416.665 31.25L414.5 35Z" fill="#29CF96"/>
<path d="M414.5 55L412.335 51.25L416.665 51.25L414.5 55Z" fill="#29CF96"/>
<path d="M414.5 75L412.335 71.25L416.665 71.25L414.5 75Z" fill="#29CF96"/>
<path d="M414.5 95L412.335 91.25L416.665 91.25L414.5 95Z" fill="#29CF96"/>
<path d="M414.5 115L412.335 111.25L416.665 111.25L414.5 115Z" fill="#29CF96"/>
<path d="M414.5 135L412.335 131.25L416.665 131.25L414.5 135Z" fill="#29CF96"/>
<path d="M414.5 155L412.335 151.25L416.665 151.25L414.5 155Z" fill="#29CF96"/>
<path d="M414.5 175L412.335 171.25L416.665 171.25L414.5 175Z" fill="#29CF96"/>
<path d="M414.5 195L412.335 191.25L416.665 191.25L414.5 195Z" fill="#29CF96"/>
<path d="M414.5 215L412.335 211.25L416.665 211.25L414.5 215Z" fill="#29CF96"/>
<path d="M414.5 235L412.335 231.25L416.665 231.25L414.5 235Z" fill="#29CF96"/>
<path d="M414.5 255L412.335 251.25L416.665 251.25L414.5 255Z" fill="#29CF96"/>
<path d="M414.5 275L412.335 271.25L416.665 271.25L414.5 275Z" fill="#29CF96"/>
<path d="M414.5 295L412.335 291.25L416.665 291.25L414.5 295Z" fill="#29CF96"/>
<path d="M414.5 315L412.335 311.25L416.665 311.25L414.5 315Z" fill="#29CF96"/>
<path d="M414.5 335L412.335 331.25L416.665 331.25L414.5 335Z" fill="#29CF96"/>
<path d="M414.5 355L412.335 351.25L416.665 351.25L414.5 355Z" fill="#29CF96"/>
<path d="M414.5 375L412.335 371.25L416.665 371.25L414.5 375Z" fill="#29CF96"/>
<path d="M17.5 0L19.6651 3.75H15.3349L17.5 0Z" fill="#29CF96"/>
<path d="M17.5 20L19.6651 23.75H15.3349L17.5 20Z" fill="#29CF96"/>
<path d="M17.5 40L19.6651 43.75H15.3349L17.5 40Z" fill="#29CF96"/>
<path d="M17.5 60L19.6651 63.75H15.3349L17.5 60Z" fill="#29CF96"/>
<path d="M17.5 80L19.6651 83.75H15.3349L17.5 80Z" fill="#29CF96"/>
<path d="M17.5 100L19.6651 103.75H15.3349L17.5 100Z" fill="#29CF96"/>
<path d="M17.5 120L19.6651 123.75H15.3349L17.5 120Z" fill="#29CF96"/>
<path d="M17.5 140L19.6651 143.75H15.3349L17.5 140Z" fill="#29CF96"/>
<path d="M17.5 160L19.6651 163.75H15.3349L17.5 160Z" fill="#29CF96"/>
<path d="M17.5 180L19.6651 183.75H15.3349L17.5 180Z" fill="#29CF96"/>
<path d="M17.5 200L19.6651 203.75H15.3349L17.5 200Z" fill="#29CF96"/>
<path d="M17.5 220L19.6651 223.75H15.3349L17.5 220Z" fill="#29CF96"/>
<path d="M17.5 240L19.6651 243.75H15.3349L17.5 240Z" fill="#29CF96"/>
<path d="M17.5 260L19.6651 263.75H15.3349L17.5 260Z" fill="#29CF96"/>
<path d="M17.5 280L19.6651 283.75H15.3349L17.5 280Z" fill="#29CF96"/>
<path d="M17.5 300L19.6651 303.75H15.3349L17.5 300Z" fill="#29CF96"/>
<path d="M17.5 320L19.6651 323.75H15.3349L17.5 320Z" fill="#29CF96"/>
<path d="M17.5 340L19.6651 343.75H15.3349L17.5 340Z" fill="#29CF96"/>
<path d="M17.5 360L19.6651 363.75H15.3349L17.5 360Z" fill="#29CF96"/>
<path d="M399.5 15L397.335 11.25L401.665 11.25L399.5 15Z" fill="#29CF96"/>
<path d="M399.5 35L397.335 31.25L401.665 31.25L399.5 35Z" fill="#29CF96"/>
<path d="M399.5 55L397.335 51.25L401.665 51.25L399.5 55Z" fill="#29CF96"/>
<path d="M399.5 75L397.335 71.25L401.665 71.25L399.5 75Z" fill="#29CF96"/>
<path d="M399.5 95L397.335 91.25L401.665 91.25L399.5 95Z" fill="#29CF96"/>
<path d="M399.5 115L397.335 111.25L401.665 111.25L399.5 115Z" fill="#29CF96"/>
<path d="M399.5 135L397.335 131.25L401.665 131.25L399.5 135Z" fill="#29CF96"/>
<path d="M399.5 155L397.335 151.25L401.665 151.25L399.5 155Z" fill="#29CF96"/>
<path d="M399.5 175L397.335 171.25L401.665 171.25L399.5 175Z" fill="#29CF96"/>
<path d="M399.5 195L397.335 191.25L401.665 191.25L399.5 195Z" fill="#29CF96"/>
<path d="M399.5 215L397.335 211.25L401.665 211.25L399.5 215Z" fill="#29CF96"/>
<path d="M399.5 235L397.335 231.25L401.665 231.25L399.5 235Z" fill="#29CF96"/>
<path d="M399.5 255L397.335 251.25L401.665 251.25L399.5 255Z" fill="#29CF96"/>
<path d="M399.5 275L397.335 271.25L401.665 271.25L399.5 275Z" fill="#29CF96"/>
<path d="M399.5 295L397.335 291.25L401.665 291.25L399.5 295Z" fill="#29CF96"/>
<path d="M399.5 315L397.335 311.25L401.665 311.25L399.5 315Z" fill="#29CF96"/>
<path d="M399.5 335L397.335 331.25L401.665 331.25L399.5 335Z" fill="#29CF96"/>
<path d="M399.5 355L397.335 351.25L401.665 351.25L399.5 355Z" fill="#29CF96"/>
<path d="M399.5 375L397.335 371.25L401.665 371.25L399.5 375Z" fill="#29CF96"/>
<path d="M32.5 0L34.6651 3.75H30.3349L32.5 0Z" fill="#29CF96"/>
<path d="M32.5 20L34.6651 23.75H30.3349L32.5 20Z" fill="#29CF96"/>
<path d="M32.5 40L34.6651 43.75H30.3349L32.5 40Z" fill="#29CF96"/>
<path d="M32.5 60L34.6651 63.75H30.3349L32.5 60Z" fill="#29CF96"/>
<path d="M32.5 80L34.6651 83.75H30.3349L32.5 80Z" fill="#29CF96"/>
<path d="M32.5 100L34.6651 103.75H30.3349L32.5 100Z" fill="#29CF96"/>
<path d="M32.5 120L34.6651 123.75H30.3349L32.5 120Z" fill="#29CF96"/>
<path d="M32.5 140L34.6651 143.75H30.3349L32.5 140Z" fill="#29CF96"/>
<path d="M32.5 160L34.6651 163.75H30.3349L32.5 160Z" fill="#29CF96"/>
<path d="M32.5 180L34.6651 183.75H30.3349L32.5 180Z" fill="#29CF96"/>
<path d="M32.5 200L34.6651 203.75H30.3349L32.5 200Z" fill="#29CF96"/>
<path d="M32.5 220L34.6651 223.75H30.3349L32.5 220Z" fill="#29CF96"/>
<path d="M32.5 240L34.6651 243.75H30.3349L32.5 240Z" fill="#29CF96"/>
<path d="M32.5 260L34.6651 263.75H30.3349L32.5 260Z" fill="#29CF96"/>
<path d="M32.5 280L34.6651 283.75H30.3349L32.5 280Z" fill="#29CF96"/>
<path d="M32.5 300L34.6651 303.75H30.3349L32.5 300Z" fill="#29CF96"/>
<path d="M32.5 320L34.6651 323.75H30.3349L32.5 320Z" fill="#29CF96"/>
<path d="M32.5 340L34.6651 343.75H30.3349L32.5 340Z" fill="#29CF96"/>
<path d="M32.5 360L34.6651 363.75H30.3349L32.5 360Z" fill="#29CF96"/>
<path d="M384.5 15L382.335 11.25L386.665 11.25L384.5 15Z" fill="#29CF96"/>
<path d="M384.5 35L382.335 31.25L386.665 31.25L384.5 35Z" fill="#29CF96"/>
<path d="M384.5 55L382.335 51.25L386.665 51.25L384.5 55Z" fill="#29CF96"/>
<path d="M384.5 75L382.335 71.25L386.665 71.25L384.5 75Z" fill="#29CF96"/>
<path d="M384.5 95L382.335 91.25L386.665 91.25L384.5 95Z" fill="#29CF96"/>
<path d="M384.5 115L382.335 111.25L386.665 111.25L384.5 115Z" fill="#29CF96"/>
<path d="M384.5 135L382.335 131.25L386.665 131.25L384.5 135Z" fill="#29CF96"/>
<path d="M384.5 155L382.335 151.25L386.665 151.25L384.5 155Z" fill="#29CF96"/>
<path d="M384.5 175L382.335 171.25L386.665 171.25L384.5 175Z" fill="#29CF96"/>
<path d="M384.5 195L382.335 191.25L386.665 191.25L384.5 195Z" fill="#29CF96"/>
<path d="M384.5 215L382.335 211.25L386.665 211.25L384.5 215Z" fill="#29CF96"/>
<path d="M384.5 235L382.335 231.25L386.665 231.25L384.5 235Z" fill="#29CF96"/>
<path d="M384.5 255L382.335 251.25L386.665 251.25L384.5 255Z" fill="#29CF96"/>
<path d="M384.5 275L382.335 271.25L386.665 271.25L384.5 275Z" fill="#29CF96"/>
<path d="M384.5 295L382.335 291.25L386.665 291.25L384.5 295Z" fill="#29CF96"/>
<path d="M384.5 315L382.335 311.25L386.665 311.25L384.5 315Z" fill="#29CF96"/>
<path d="M384.5 335L382.335 331.25L386.665 331.25L384.5 335Z" fill="#29CF96"/>
<path d="M384.5 355L382.335 351.25L386.665 351.25L384.5 355Z" fill="#29CF96"/>
<path d="M384.5 375L382.335 371.25L386.665 371.25L384.5 375Z" fill="#29CF96"/>
<path d="M47.5 0L49.6651 3.75H45.3349L47.5 0Z" fill="#29CF96"/>
<path d="M47.5 20L49.6651 23.75H45.3349L47.5 20Z" fill="#29CF96"/>
<path d="M47.5 40L49.6651 43.75H45.3349L47.5 40Z" fill="#29CF96"/>
<path d="M47.5 60L49.6651 63.75H45.3349L47.5 60Z" fill="#29CF96"/>
<path d="M47.5 80L49.6651 83.75H45.3349L47.5 80Z" fill="#29CF96"/>
<path d="M47.5 100L49.6651 103.75H45.3349L47.5 100Z" fill="#29CF96"/>
<path d="M47.5 120L49.6651 123.75H45.3349L47.5 120Z" fill="#29CF96"/>
<path d="M47.5 140L49.6651 143.75H45.3349L47.5 140Z" fill="#29CF96"/>
<path d="M47.5 160L49.6651 163.75H45.3349L47.5 160Z" fill="#29CF96"/>
<path d="M47.5 180L49.6651 183.75H45.3349L47.5 180Z" fill="#29CF96"/>
<path d="M47.5 200L49.6651 203.75H45.3349L47.5 200Z" fill="#29CF96"/>
<path d="M47.5 220L49.6651 223.75H45.3349L47.5 220Z" fill="#29CF96"/>
<path d="M47.5 240L49.6651 243.75H45.3349L47.5 240Z" fill="#29CF96"/>
<path d="M47.5 260L49.6651 263.75H45.3349L47.5 260Z" fill="#29CF96"/>
<path d="M47.5 280L49.6651 283.75H45.3349L47.5 280Z" fill="#29CF96"/>
<path d="M47.5 300L49.6651 303.75H45.3349L47.5 300Z" fill="#29CF96"/>
<path d="M47.5 320L49.6651 323.75H45.3349L47.5 320Z" fill="#29CF96"/>
<path d="M47.5 340L49.6651 343.75H45.3349L47.5 340Z" fill="#29CF96"/>
<path d="M47.5 360L49.6651 363.75H45.3349L47.5 360Z" fill="#29CF96"/>
<path d="M369.5 15L367.335 11.25L371.665 11.25L369.5 15Z" fill="#29CF96"/>
<path d="M369.5 35L367.335 31.25L371.665 31.25L369.5 35Z" fill="#29CF96"/>
<path d="M369.5 55L367.335 51.25L371.665 51.25L369.5 55Z" fill="#29CF96"/>
<path d="M369.5 75L367.335 71.25L371.665 71.25L369.5 75Z" fill="#29CF96"/>
<path d="M369.5 95L367.335 91.25L371.665 91.25L369.5 95Z" fill="#29CF96"/>
<path d="M369.5 115L367.335 111.25L371.665 111.25L369.5 115Z" fill="#29CF96"/>
<path d="M369.5 135L367.335 131.25L371.665 131.25L369.5 135Z" fill="#29CF96"/>
<path d="M369.5 155L367.335 151.25L371.665 151.25L369.5 155Z" fill="#29CF96"/>
<path d="M369.5 175L367.335 171.25L371.665 171.25L369.5 175Z" fill="#29CF96"/>
<path d="M369.5 195L367.335 191.25L371.665 191.25L369.5 195Z" fill="#29CF96"/>
<path d="M369.5 215L367.335 211.25L371.665 211.25L369.5 215Z" fill="#29CF96"/>
<path d="M369.5 235L367.335 231.25L371.665 231.25L369.5 235Z" fill="#29CF96"/>
<path d="M369.5 255L367.335 251.25L371.665 251.25L369.5 255Z" fill="#29CF96"/>
<path d="M369.5 275L367.335 271.25L371.665 271.25L369.5 275Z" fill="#29CF96"/>
<path d="M369.5 295L367.335 291.25L371.665 291.25L369.5 295Z" fill="#29CF96"/>
<path d="M369.5 315L367.335 311.25L371.665 311.25L369.5 315Z" fill="#29CF96"/>
<path d="M369.5 335L367.335 331.25L371.665 331.25L369.5 335Z" fill="#29CF96"/>
<path d="M369.5 355L367.335 351.25L371.665 351.25L369.5 355Z" fill="#29CF96"/>
<path d="M369.5 375L367.335 371.25L371.665 371.25L369.5 375Z" fill="#29CF96"/>
<path d="M62.5 0L64.6651 3.75H60.3349L62.5 0Z" fill="#29CF96"/>
<path d="M62.5 20L64.6651 23.75H60.3349L62.5 20Z" fill="#29CF96"/>
<path d="M62.5 40L64.6651 43.75H60.3349L62.5 40Z" fill="#29CF96"/>
<path d="M62.5 60L64.6651 63.75H60.3349L62.5 60Z" fill="#29CF96"/>
<path d="M62.5 80L64.6651 83.75H60.3349L62.5 80Z" fill="#29CF96"/>
<path d="M62.5 100L64.6651 103.75H60.3349L62.5 100Z" fill="#29CF96"/>
<path d="M62.5 120L64.6651 123.75H60.3349L62.5 120Z" fill="#29CF96"/>
<path d="M62.5 140L64.6651 143.75H60.3349L62.5 140Z" fill="#29CF96"/>
<path d="M62.5 160L64.6651 163.75H60.3349L62.5 160Z" fill="#29CF96"/>
<path d="M62.5 180L64.6651 183.75H60.3349L62.5 180Z" fill="#29CF96"/>
<path d="M62.5 200L64.6651 203.75H60.3349L62.5 200Z" fill="#29CF96"/>
<path d="M62.5 220L64.6651 223.75H60.3349L62.5 220Z" fill="#29CF96"/>
<path d="M62.5 240L64.6651 243.75H60.3349L62.5 240Z" fill="#29CF96"/>
<path d="M62.5 260L64.6651 263.75H60.3349L62.5 260Z" fill="#29CF96"/>
<path d="M62.5 280L64.6651 283.75H60.3349L62.5 280Z" fill="#29CF96"/>
<path d="M62.5 300L64.6651 303.75H60.3349L62.5 300Z" fill="#29CF96"/>
<path d="M62.5 320L64.6651 323.75H60.3349L62.5 320Z" fill="#29CF96"/>
<path d="M62.5 340L64.6651 343.75H60.3349L62.5 340Z" fill="#29CF96"/>
<path d="M62.5 360L64.6651 363.75H60.3349L62.5 360Z" fill="#29CF96"/>
<path d="M354.5 15L352.335 11.25L356.665 11.25L354.5 15Z" fill="#29CF96"/>
<path d="M354.5 35L352.335 31.25L356.665 31.25L354.5 35Z" fill="#29CF96"/>
<path d="M354.5 55L352.335 51.25L356.665 51.25L354.5 55Z" fill="#29CF96"/>
<path d="M354.5 75L352.335 71.25L356.665 71.25L354.5 75Z" fill="#29CF96"/>
<path d="M354.5 95L352.335 91.25L356.665 91.25L354.5 95Z" fill="#29CF96"/>
<path d="M354.5 115L352.335 111.25L356.665 111.25L354.5 115Z" fill="#29CF96"/>
<path d="M354.5 135L352.335 131.25L356.665 131.25L354.5 135Z" fill="#29CF96"/>
<path d="M354.5 155L352.335 151.25L356.665 151.25L354.5 155Z" fill="#29CF96"/>
<path d="M354.5 175L352.335 171.25L356.665 171.25L354.5 175Z" fill="#29CF96"/>
<path d="M354.5 195L352.335 191.25L356.665 191.25L354.5 195Z" fill="#29CF96"/>
<path d="M354.5 215L352.335 211.25L356.665 211.25L354.5 215Z" fill="#29CF96"/>
<path d="M354.5 235L352.335 231.25L356.665 231.25L354.5 235Z" fill="#29CF96"/>
<path d="M354.5 255L352.335 251.25L356.665 251.25L354.5 255Z" fill="#29CF96"/>
<path d="M354.5 275L352.335 271.25L356.665 271.25L354.5 275Z" fill="#29CF96"/>
<path d="M354.5 295L352.335 291.25L356.665 291.25L354.5 295Z" fill="#29CF96"/>
<path d="M354.5 315L352.335 311.25L356.665 311.25L354.5 315Z" fill="#29CF96"/>
<path d="M354.5 335L352.335 331.25L356.665 331.25L354.5 335Z" fill="#29CF96"/>
<path d="M354.5 355L352.335 351.25L356.665 351.25L354.5 355Z" fill="#29CF96"/>
<path d="M354.5 375L352.335 371.25L356.665 371.25L354.5 375Z" fill="#29CF96"/>
<path d="M77.5 0L79.6651 3.75H75.3349L77.5 0Z" fill="#29CF96"/>
<path d="M77.5 20L79.6651 23.75H75.3349L77.5 20Z" fill="#29CF96"/>
<path d="M77.5 40L79.6651 43.75H75.3349L77.5 40Z" fill="#29CF96"/>
<path d="M77.5 60L79.6651 63.75H75.3349L77.5 60Z" fill="#29CF96"/>
<path d="M77.5 80L79.6651 83.75H75.3349L77.5 80Z" fill="#29CF96"/>
<path d="M77.5 100L79.6651 103.75H75.3349L77.5 100Z" fill="#29CF96"/>
<path d="M77.5 120L79.6651 123.75H75.3349L77.5 120Z" fill="#29CF96"/>
<path d="M77.5 140L79.6651 143.75H75.3349L77.5 140Z" fill="#29CF96"/>
<path d="M77.5 160L79.6651 163.75H75.3349L77.5 160Z" fill="#29CF96"/>
<path d="M77.5 180L79.6651 183.75H75.3349L77.5 180Z" fill="#29CF96"/>
<path d="M77.5 200L79.6651 203.75H75.3349L77.5 200Z" fill="#29CF96"/>
<path d="M77.5 220L79.6651 223.75H75.3349L77.5 220Z" fill="#29CF96"/>
<path d="M77.5 240L79.6651 243.75H75.3349L77.5 240Z" fill="#29CF96"/>
<path d="M77.5 260L79.6651 263.75H75.3349L77.5 260Z" fill="#29CF96"/>
<path d="M77.5 280L79.6651 283.75H75.3349L77.5 280Z" fill="#29CF96"/>
<path d="M77.5 300L79.6651 303.75H75.3349L77.5 300Z" fill="#29CF96"/>
<path d="M77.5 320L79.6651 323.75H75.3349L77.5 320Z" fill="#29CF96"/>
<path d="M77.5 340L79.6651 343.75H75.3349L77.5 340Z" fill="#29CF96"/>
<path d="M77.5 360L79.6651 363.75H75.3349L77.5 360Z" fill="#29CF96"/>
<path d="M339.5 15L337.335 11.25L341.665 11.25L339.5 15Z" fill="#29CF96"/>
<path d="M339.5 35L337.335 31.25L341.665 31.25L339.5 35Z" fill="#29CF96"/>
<path d="M339.5 55L337.335 51.25L341.665 51.25L339.5 55Z" fill="#29CF96"/>
<path d="M339.5 75L337.335 71.25L341.665 71.25L339.5 75Z" fill="#29CF96"/>
<path d="M339.5 95L337.335 91.25L341.665 91.25L339.5 95Z" fill="#29CF96"/>
<path d="M339.5 115L337.335 111.25L341.665 111.25L339.5 115Z" fill="#29CF96"/>
<path d="M339.5 135L337.335 131.25L341.665 131.25L339.5 135Z" fill="#29CF96"/>
<path d="M339.5 155L337.335 151.25L341.665 151.25L339.5 155Z" fill="#29CF96"/>
<path d="M339.5 175L337.335 171.25L341.665 171.25L339.5 175Z" fill="#29CF96"/>
<path d="M339.5 195L337.335 191.25L341.665 191.25L339.5 195Z" fill="#29CF96"/>
<path d="M339.5 215L337.335 211.25L341.665 211.25L339.5 215Z" fill="#29CF96"/>
<path d="M339.5 235L337.335 231.25L341.665 231.25L339.5 235Z" fill="#29CF96"/>
<path d="M339.5 255L337.335 251.25L341.665 251.25L339.5 255Z" fill="#29CF96"/>
<path d="M339.5 275L337.335 271.25L341.665 271.25L339.5 275Z" fill="#29CF96"/>
<path d="M339.5 295L337.335 291.25L341.665 291.25L339.5 295Z" fill="#29CF96"/>
<path d="M339.5 315L337.335 311.25L341.665 311.25L339.5 315Z" fill="#29CF96"/>
<path d="M339.5 335L337.335 331.25L341.665 331.25L339.5 335Z" fill="#29CF96"/>
<path d="M339.5 355L337.335 351.25L341.665 351.25L339.5 355Z" fill="#29CF96"/>
<path d="M339.5 375L337.335 371.25L341.665 371.25L339.5 375Z" fill="#29CF96"/>
<path d="M92.5 0L94.6651 3.75H90.3349L92.5 0Z" fill="#29CF96"/>
<path d="M92.5 20L94.6651 23.75H90.3349L92.5 20Z" fill="#29CF96"/>
<path d="M92.5 40L94.6651 43.75H90.3349L92.5 40Z" fill="#29CF96"/>
<path d="M92.5 60L94.6651 63.75H90.3349L92.5 60Z" fill="#29CF96"/>
<path d="M92.5 80L94.6651 83.75H90.3349L92.5 80Z" fill="#29CF96"/>
<path d="M92.5 100L94.6651 103.75H90.3349L92.5 100Z" fill="#29CF96"/>
<path d="M92.5 120L94.6651 123.75H90.3349L92.5 120Z" fill="#29CF96"/>
<path d="M92.5 140L94.6651 143.75H90.3349L92.5 140Z" fill="#29CF96"/>
<path d="M92.5 160L94.6651 163.75H90.3349L92.5 160Z" fill="#29CF96"/>
<path d="M92.5 180L94.6651 183.75H90.3349L92.5 180Z" fill="#29CF96"/>
<path d="M92.5 200L94.6651 203.75H90.3349L92.5 200Z" fill="#29CF96"/>
<path d="M92.5 220L94.6651 223.75H90.3349L92.5 220Z" fill="#29CF96"/>
<path d="M92.5 240L94.6651 243.75H90.3349L92.5 240Z" fill="#29CF96"/>
<path d="M92.5 260L94.6651 263.75H90.3349L92.5 260Z" fill="#29CF96"/>
<path d="M92.5 280L94.6651 283.75H90.3349L92.5 280Z" fill="#29CF96"/>
<path d="M92.5 300L94.6651 303.75H90.3349L92.5 300Z" fill="#29CF96"/>
<path d="M92.5 320L94.6651 323.75H90.3349L92.5 320Z" fill="#29CF96"/>
<path d="M92.5 340L94.6651 343.75H90.3349L92.5 340Z" fill="#29CF96"/>
<path d="M92.5 360L94.6651 363.75H90.3349L92.5 360Z" fill="#29CF96"/>
<path d="M324.5 15L322.335 11.25L326.665 11.25L324.5 15Z" fill="#29CF96"/>
<path d="M324.5 35L322.335 31.25L326.665 31.25L324.5 35Z" fill="#29CF96"/>
<path d="M324.5 55L322.335 51.25L326.665 51.25L324.5 55Z" fill="#29CF96"/>
<path d="M324.5 75L322.335 71.25L326.665 71.25L324.5 75Z" fill="#29CF96"/>
<path d="M324.5 95L322.335 91.25L326.665 91.25L324.5 95Z" fill="#29CF96"/>
<path d="M324.5 115L322.335 111.25L326.665 111.25L324.5 115Z" fill="#29CF96"/>
<path d="M324.5 135L322.335 131.25L326.665 131.25L324.5 135Z" fill="#29CF96"/>
<path d="M324.5 155L322.335 151.25L326.665 151.25L324.5 155Z" fill="#29CF96"/>
<path d="M324.5 175L322.335 171.25L326.665 171.25L324.5 175Z" fill="#29CF96"/>
<path d="M324.5 195L322.335 191.25L326.665 191.25L324.5 195Z" fill="#29CF96"/>
<path d="M324.5 215L322.335 211.25L326.665 211.25L324.5 215Z" fill="#29CF96"/>
<path d="M324.5 235L322.335 231.25L326.665 231.25L324.5 235Z" fill="#29CF96"/>
<path d="M324.5 255L322.335 251.25L326.665 251.25L324.5 255Z" fill="#29CF96"/>
<path d="M324.5 275L322.335 271.25L326.665 271.25L324.5 275Z" fill="#29CF96"/>
<path d="M324.5 295L322.335 291.25L326.665 291.25L324.5 295Z" fill="#29CF96"/>
<path d="M324.5 315L322.335 311.25L326.665 311.25L324.5 315Z" fill="#29CF96"/>
<path d="M324.5 335L322.335 331.25L326.665 331.25L324.5 335Z" fill="#29CF96"/>
<path d="M324.5 355L322.335 351.25L326.665 351.25L324.5 355Z" fill="#29CF96"/>
<path d="M324.5 375L322.335 371.25L326.665 371.25L324.5 375Z" fill="#29CF96"/>
<path d="M107.5 0L109.665 3.75H105.335L107.5 0Z" fill="#29CF96"/>
<path d="M107.5 20L109.665 23.75H105.335L107.5 20Z" fill="#29CF96"/>
<path d="M107.5 40L109.665 43.75H105.335L107.5 40Z" fill="#29CF96"/>
<path d="M107.5 60L109.665 63.75H105.335L107.5 60Z" fill="#29CF96"/>
<path d="M107.5 80L109.665 83.75H105.335L107.5 80Z" fill="#29CF96"/>
<path d="M107.5 100L109.665 103.75H105.335L107.5 100Z" fill="#29CF96"/>
<path d="M107.5 120L109.665 123.75H105.335L107.5 120Z" fill="#29CF96"/>
<path d="M107.5 140L109.665 143.75H105.335L107.5 140Z" fill="#29CF96"/>
<path d="M107.5 160L109.665 163.75H105.335L107.5 160Z" fill="#29CF96"/>
<path d="M107.5 180L109.665 183.75H105.335L107.5 180Z" fill="#29CF96"/>
<path d="M107.5 200L109.665 203.75H105.335L107.5 200Z" fill="#29CF96"/>
<path d="M107.5 220L109.665 223.75H105.335L107.5 220Z" fill="#29CF96"/>
<path d="M107.5 240L109.665 243.75H105.335L107.5 240Z" fill="#29CF96"/>
<path d="M107.5 260L109.665 263.75H105.335L107.5 260Z" fill="#29CF96"/>
<path d="M107.5 280L109.665 283.75H105.335L107.5 280Z" fill="#29CF96"/>
<path d="M107.5 300L109.665 303.75H105.335L107.5 300Z" fill="#29CF96"/>
<path d="M107.5 320L109.665 323.75H105.335L107.5 320Z" fill="#29CF96"/>
<path d="M107.5 340L109.665 343.75H105.335L107.5 340Z" fill="#29CF96"/>
<path d="M107.5 360L109.665 363.75H105.335L107.5 360Z" fill="#29CF96"/>
<path d="M309.5 15L307.335 11.25L311.665 11.25L309.5 15Z" fill="#29CF96"/>
<path d="M309.5 35L307.335 31.25L311.665 31.25L309.5 35Z" fill="#29CF96"/>
<path d="M309.5 55L307.335 51.25L311.665 51.25L309.5 55Z" fill="#29CF96"/>
<path d="M309.5 75L307.335 71.25L311.665 71.25L309.5 75Z" fill="#29CF96"/>
<path d="M309.5 95L307.335 91.25L311.665 91.25L309.5 95Z" fill="#29CF96"/>
<path d="M309.5 115L307.335 111.25L311.665 111.25L309.5 115Z" fill="#29CF96"/>
<path d="M309.5 135L307.335 131.25L311.665 131.25L309.5 135Z" fill="#29CF96"/>
<path d="M309.5 155L307.335 151.25L311.665 151.25L309.5 155Z" fill="#29CF96"/>
<path d="M309.5 175L307.335 171.25L311.665 171.25L309.5 175Z" fill="#29CF96"/>
<path d="M309.5 195L307.335 191.25L311.665 191.25L309.5 195Z" fill="#29CF96"/>
<path d="M309.5 215L307.335 211.25L311.665 211.25L309.5 215Z" fill="#29CF96"/>
<path d="M309.5 235L307.335 231.25L311.665 231.25L309.5 235Z" fill="#29CF96"/>
<path d="M309.5 255L307.335 251.25L311.665 251.25L309.5 255Z" fill="#29CF96"/>
<path d="M309.5 275L307.335 271.25L311.665 271.25L309.5 275Z" fill="#29CF96"/>
<path d="M309.5 295L307.335 291.25L311.665 291.25L309.5 295Z" fill="#29CF96"/>
<path d="M309.5 315L307.335 311.25L311.665 311.25L309.5 315Z" fill="#29CF96"/>
<path d="M309.5 335L307.335 331.25L311.665 331.25L309.5 335Z" fill="#29CF96"/>
<path d="M309.5 355L307.335 351.25L311.665 351.25L309.5 355Z" fill="#29CF96"/>
<path d="M309.5 375L307.335 371.25L311.665 371.25L309.5 375Z" fill="#29CF96"/>
<path d="M122.5 0L124.665 3.75H120.335L122.5 0Z" fill="#29CF96"/>
<path d="M122.5 20L124.665 23.75H120.335L122.5 20Z" fill="#29CF96"/>
<path d="M122.5 40L124.665 43.75H120.335L122.5 40Z" fill="#29CF96"/>
<path d="M122.5 60L124.665 63.75H120.335L122.5 60Z" fill="#29CF96"/>
<path d="M122.5 80L124.665 83.75H120.335L122.5 80Z" fill="#29CF96"/>
<path d="M122.5 100L124.665 103.75H120.335L122.5 100Z" fill="#29CF96"/>
<path d="M122.5 120L124.665 123.75H120.335L122.5 120Z" fill="#29CF96"/>
<path d="M122.5 140L124.665 143.75H120.335L122.5 140Z" fill="#29CF96"/>
<path d="M122.5 160L124.665 163.75H120.335L122.5 160Z" fill="#29CF96"/>
<path d="M122.5 180L124.665 183.75H120.335L122.5 180Z" fill="#29CF96"/>
<path d="M122.5 200L124.665 203.75H120.335L122.5 200Z" fill="#29CF96"/>
<path d="M122.5 220L124.665 223.75H120.335L122.5 220Z" fill="#29CF96"/>
<path d="M122.5 240L124.665 243.75H120.335L122.5 240Z" fill="#29CF96"/>
<path d="M122.5 260L124.665 263.75H120.335L122.5 260Z" fill="#29CF96"/>
<path d="M122.5 280L124.665 283.75H120.335L122.5 280Z" fill="#29CF96"/>
<path d="M122.5 300L124.665 303.75H120.335L122.5 300Z" fill="#29CF96"/>
<path d="M122.5 320L124.665 323.75H120.335L122.5 320Z" fill="#29CF96"/>
<path d="M122.5 340L124.665 343.75H120.335L122.5 340Z" fill="#29CF96"/>
<path d="M122.5 360L124.665 363.75H120.335L122.5 360Z" fill="#29CF96"/>
<path d="M294.5 15L292.335 11.25L296.665 11.25L294.5 15Z" fill="#29CF96"/>
<path d="M294.5 35L292.335 31.25L296.665 31.25L294.5 35Z" fill="#29CF96"/>
<path d="M294.5 55L292.335 51.25L296.665 51.25L294.5 55Z" fill="#29CF96"/>
<path d="M294.5 75L292.335 71.25L296.665 71.25L294.5 75Z" fill="#29CF96"/>
<path d="M294.5 95L292.335 91.25L296.665 91.25L294.5 95Z" fill="#29CF96"/>
<path d="M294.5 115L292.335 111.25L296.665 111.25L294.5 115Z" fill="#29CF96"/>
<path d="M294.5 135L292.335 131.25L296.665 131.25L294.5 135Z" fill="#29CF96"/>
<path d="M294.5 155L292.335 151.25L296.665 151.25L294.5 155Z" fill="#29CF96"/>
<path d="M294.5 175L292.335 171.25L296.665 171.25L294.5 175Z" fill="#29CF96"/>
<path d="M294.5 195L292.335 191.25L296.665 191.25L294.5 195Z" fill="#29CF96"/>
<path d="M294.5 215L292.335 211.25L296.665 211.25L294.5 215Z" fill="#29CF96"/>
<path d="M294.5 235L292.335 231.25L296.665 231.25L294.5 235Z" fill="#29CF96"/>
<path d="M294.5 255L292.335 251.25L296.665 251.25L294.5 255Z" fill="#29CF96"/>
<path d="M294.5 275L292.335 271.25L296.665 271.25L294.5 275Z" fill="#29CF96"/>
<path d="M294.5 295L292.335 291.25L296.665 291.25L294.5 295Z" fill="#29CF96"/>
<path d="M294.5 315L292.335 311.25L296.665 311.25L294.5 315Z" fill="#29CF96"/>
<path d="M294.5 335L292.335 331.25L296.665 331.25L294.5 335Z" fill="#29CF96"/>
<path d="M294.5 355L292.335 351.25L296.665 351.25L294.5 355Z" fill="#29CF96"/>
<path d="M294.5 375L292.335 371.25L296.665 371.25L294.5 375Z" fill="#29CF96"/>
<path d="M137.5 0L139.665 3.75H135.335L137.5 0Z" fill="#29CF96"/>
<path d="M137.5 20L139.665 23.75H135.335L137.5 20Z" fill="#29CF96"/>
<path d="M137.5 40L139.665 43.75H135.335L137.5 40Z" fill="#29CF96"/>
<path d="M137.5 60L139.665 63.75H135.335L137.5 60Z" fill="#29CF96"/>
<path d="M137.5 80L139.665 83.75H135.335L137.5 80Z" fill="#29CF96"/>
<path d="M137.5 100L139.665 103.75H135.335L137.5 100Z" fill="#29CF96"/>
<path d="M137.5 120L139.665 123.75H135.335L137.5 120Z" fill="#29CF96"/>
<path d="M137.5 140L139.665 143.75H135.335L137.5 140Z" fill="#29CF96"/>
<path d="M137.5 160L139.665 163.75H135.335L137.5 160Z" fill="#29CF96"/>
<path d="M137.5 180L139.665 183.75H135.335L137.5 180Z" fill="#29CF96"/>
<path d="M137.5 200L139.665 203.75H135.335L137.5 200Z" fill="#29CF96"/>
<path d="M137.5 220L139.665 223.75H135.335L137.5 220Z" fill="#29CF96"/>
<path d="M137.5 240L139.665 243.75H135.335L137.5 240Z" fill="#29CF96"/>
<path d="M137.5 260L139.665 263.75H135.335L137.5 260Z" fill="#29CF96"/>
<path d="M137.5 280L139.665 283.75H135.335L137.5 280Z" fill="#29CF96"/>
<path d="M137.5 300L139.665 303.75H135.335L137.5 300Z" fill="#29CF96"/>
<path d="M137.5 320L139.665 323.75H135.335L137.5 320Z" fill="#29CF96"/>
<path d="M137.5 340L139.665 343.75H135.335L137.5 340Z" fill="#29CF96"/>
<path d="M137.5 360L139.665 363.75H135.335L137.5 360Z" fill="#29CF96"/>
<path d="M279.5 15L277.335 11.25L281.665 11.25L279.5 15Z" fill="#29CF96"/>
<path d="M279.5 35L277.335 31.25L281.665 31.25L279.5 35Z" fill="#29CF96"/>
<path d="M279.5 55L277.335 51.25L281.665 51.25L279.5 55Z" fill="#29CF96"/>
<path d="M279.5 75L277.335 71.25L281.665 71.25L279.5 75Z" fill="#29CF96"/>
<path d="M279.5 95L277.335 91.25L281.665 91.25L279.5 95Z" fill="#29CF96"/>
<path d="M279.5 115L277.335 111.25L281.665 111.25L279.5 115Z" fill="#29CF96"/>
<path d="M279.5 135L277.335 131.25L281.665 131.25L279.5 135Z" fill="#29CF96"/>
<path d="M279.5 155L277.335 151.25L281.665 151.25L279.5 155Z" fill="#29CF96"/>
<path d="M279.5 175L277.335 171.25L281.665 171.25L279.5 175Z" fill="#29CF96"/>
<path d="M279.5 195L277.335 191.25L281.665 191.25L279.5 195Z" fill="#29CF96"/>
<path d="M279.5 215L277.335 211.25L281.665 211.25L279.5 215Z" fill="#29CF96"/>
<path d="M279.5 235L277.335 231.25L281.665 231.25L279.5 235Z" fill="#29CF96"/>
<path d="M279.5 255L277.335 251.25L281.665 251.25L279.5 255Z" fill="#29CF96"/>
<path d="M279.5 275L277.335 271.25L281.665 271.25L279.5 275Z" fill="#29CF96"/>
<path d="M279.5 295L277.335 291.25L281.665 291.25L279.5 295Z" fill="#29CF96"/>
<path d="M279.5 315L277.335 311.25L281.665 311.25L279.5 315Z" fill="#29CF96"/>
<path d="M279.5 335L277.335 331.25L281.665 331.25L279.5 335Z" fill="#29CF96"/>
<path d="M279.5 355L277.335 351.25L281.665 351.25L279.5 355Z" fill="#29CF96"/>
<path d="M279.5 375L277.335 371.25L281.665 371.25L279.5 375Z" fill="#29CF96"/>
<path d="M152.5 0L154.665 3.75H150.335L152.5 0Z" fill="#29CF96"/>
<path d="M152.5 20L154.665 23.75H150.335L152.5 20Z" fill="#29CF96"/>
<path d="M152.5 40L154.665 43.75H150.335L152.5 40Z" fill="#29CF96"/>
<path d="M152.5 60L154.665 63.75H150.335L152.5 60Z" fill="#29CF96"/>
<path d="M152.5 80L154.665 83.75H150.335L152.5 80Z" fill="#29CF96"/>
<path d="M152.5 100L154.665 103.75H150.335L152.5 100Z" fill="#29CF96"/>
<path d="M152.5 120L154.665 123.75H150.335L152.5 120Z" fill="#29CF96"/>
<path d="M152.5 140L154.665 143.75H150.335L152.5 140Z" fill="#29CF96"/>
<path d="M152.5 160L154.665 163.75H150.335L152.5 160Z" fill="#29CF96"/>
<path d="M152.5 180L154.665 183.75H150.335L152.5 180Z" fill="#29CF96"/>
<path d="M152.5 200L154.665 203.75H150.335L152.5 200Z" fill="#29CF96"/>
<path d="M152.5 220L154.665 223.75H150.335L152.5 220Z" fill="#29CF96"/>
<path d="M152.5 240L154.665 243.75H150.335L152.5 240Z" fill="#29CF96"/>
<path d="M152.5 260L154.665 263.75H150.335L152.5 260Z" fill="#29CF96"/>
<path d="M152.5 280L154.665 283.75H150.335L152.5 280Z" fill="#29CF96"/>
<path d="M152.5 300L154.665 303.75H150.335L152.5 300Z" fill="#29CF96"/>
<path d="M152.5 320L154.665 323.75H150.335L152.5 320Z" fill="#29CF96"/>
<path d="M152.5 340L154.665 343.75H150.335L152.5 340Z" fill="#29CF96"/>
<path d="M152.5 360L154.665 363.75H150.335L152.5 360Z" fill="#29CF96"/>
<path d="M264.5 15L262.335 11.25L266.665 11.25L264.5 15Z" fill="#29CF96"/>
<path d="M264.5 35L262.335 31.25L266.665 31.25L264.5 35Z" fill="#29CF96"/>
<path d="M264.5 55L262.335 51.25L266.665 51.25L264.5 55Z" fill="#29CF96"/>
<path d="M264.5 75L262.335 71.25L266.665 71.25L264.5 75Z" fill="#29CF96"/>
<path d="M264.5 95L262.335 91.25L266.665 91.25L264.5 95Z" fill="#29CF96"/>
<path d="M264.5 115L262.335 111.25L266.665 111.25L264.5 115Z" fill="#29CF96"/>
<path d="M264.5 135L262.335 131.25L266.665 131.25L264.5 135Z" fill="#29CF96"/>
<path d="M264.5 155L262.335 151.25L266.665 151.25L264.5 155Z" fill="#29CF96"/>
<path d="M264.5 175L262.335 171.25L266.665 171.25L264.5 175Z" fill="#29CF96"/>
<path d="M264.5 195L262.335 191.25L266.665 191.25L264.5 195Z" fill="#29CF96"/>
<path d="M264.5 215L262.335 211.25L266.665 211.25L264.5 215Z" fill="#29CF96"/>
<path d="M264.5 235L262.335 231.25L266.665 231.25L264.5 235Z" fill="#29CF96"/>
<path d="M264.5 255L262.335 251.25L266.665 251.25L264.5 255Z" fill="#29CF96"/>
<path d="M264.5 275L262.335 271.25L266.665 271.25L264.5 275Z" fill="#29CF96"/>
<path d="M264.5 295L262.335 291.25L266.665 291.25L264.5 295Z" fill="#29CF96"/>
<path d="M264.5 315L262.335 311.25L266.665 311.25L264.5 315Z" fill="#29CF96"/>
<path d="M264.5 335L262.335 331.25L266.665 331.25L264.5 335Z" fill="#29CF96"/>
<path d="M264.5 355L262.335 351.25L266.665 351.25L264.5 355Z" fill="#29CF96"/>
<path d="M264.5 375L262.335 371.25L266.665 371.25L264.5 375Z" fill="#29CF96"/>
<path d="M167.5 0L169.665 3.75H165.335L167.5 0Z" fill="#29CF96"/>
<path d="M167.5 20L169.665 23.75H165.335L167.5 20Z" fill="#29CF96"/>
<path d="M167.5 40L169.665 43.75H165.335L167.5 40Z" fill="#29CF96"/>
<path d="M167.5 60L169.665 63.75H165.335L167.5 60Z" fill="#29CF96"/>
<path d="M167.5 80L169.665 83.75H165.335L167.5 80Z" fill="#29CF96"/>
<path d="M167.5 100L169.665 103.75H165.335L167.5 100Z" fill="#29CF96"/>
<path d="M167.5 120L169.665 123.75H165.335L167.5 120Z" fill="#29CF96"/>
<path d="M167.5 140L169.665 143.75H165.335L167.5 140Z" fill="#29CF96"/>
<path d="M167.5 160L169.665 163.75H165.335L167.5 160Z" fill="#29CF96"/>
<path d="M167.5 180L169.665 183.75H165.335L167.5 180Z" fill="#29CF96"/>
<path d="M167.5 200L169.665 203.75H165.335L167.5 200Z" fill="#29CF96"/>
<path d="M167.5 220L169.665 223.75H165.335L167.5 220Z" fill="#29CF96"/>
<path d="M167.5 240L169.665 243.75H165.335L167.5 240Z" fill="#29CF96"/>
<path d="M167.5 260L169.665 263.75H165.335L167.5 260Z" fill="#29CF96"/>
<path d="M167.5 280L169.665 283.75H165.335L167.5 280Z" fill="#29CF96"/>
<path d="M167.5 300L169.665 303.75H165.335L167.5 300Z" fill="#29CF96"/>
<path d="M167.5 320L169.665 323.75H165.335L167.5 320Z" fill="#29CF96"/>
<path d="M167.5 340L169.665 343.75H165.335L167.5 340Z" fill="#29CF96"/>
<path d="M167.5 360L169.665 363.75H165.335L167.5 360Z" fill="#29CF96"/>
<path d="M249.5 15L247.335 11.25L251.665 11.25L249.5 15Z" fill="#29CF96"/>
<path d="M249.5 35L247.335 31.25L251.665 31.25L249.5 35Z" fill="#29CF96"/>
<path d="M249.5 55L247.335 51.25L251.665 51.25L249.5 55Z" fill="#29CF96"/>
<path d="M249.5 75L247.335 71.25L251.665 71.25L249.5 75Z" fill="#29CF96"/>
<path d="M249.5 95L247.335 91.25L251.665 91.25L249.5 95Z" fill="#29CF96"/>
<path d="M249.5 115L247.335 111.25L251.665 111.25L249.5 115Z" fill="#29CF96"/>
<path d="M249.5 135L247.335 131.25L251.665 131.25L249.5 135Z" fill="#29CF96"/>
<path d="M249.5 155L247.335 151.25L251.665 151.25L249.5 155Z" fill="#29CF96"/>
<path d="M249.5 175L247.335 171.25L251.665 171.25L249.5 175Z" fill="#29CF96"/>
<path d="M249.5 195L247.335 191.25L251.665 191.25L249.5 195Z" fill="#29CF96"/>
<path d="M249.5 215L247.335 211.25L251.665 211.25L249.5 215Z" fill="#29CF96"/>
<path d="M249.5 235L247.335 231.25L251.665 231.25L249.5 235Z" fill="#29CF96"/>
<path d="M249.5 255L247.335 251.25L251.665 251.25L249.5 255Z" fill="#29CF96"/>
<path d="M249.5 275L247.335 271.25L251.665 271.25L249.5 275Z" fill="#29CF96"/>
<path d="M249.5 295L247.335 291.25L251.665 291.25L249.5 295Z" fill="#29CF96"/>
<path d="M249.5 315L247.335 311.25L251.665 311.25L249.5 315Z" fill="#29CF96"/>
<path d="M249.5 335L247.335 331.25L251.665 331.25L249.5 335Z" fill="#29CF96"/>
<path d="M249.5 355L247.335 351.25L251.665 351.25L249.5 355Z" fill="#29CF96"/>
<path d="M249.5 375L247.335 371.25L251.665 371.25L249.5 375Z" fill="#29CF96"/>
<path d="M182.5 0L184.665 3.75H180.335L182.5 0Z" fill="#29CF96"/>
<path d="M182.5 20L184.665 23.75H180.335L182.5 20Z" fill="#29CF96"/>
<path d="M182.5 40L184.665 43.75H180.335L182.5 40Z" fill="#29CF96"/>
<path d="M182.5 60L184.665 63.75H180.335L182.5 60Z" fill="#29CF96"/>
<path d="M182.5 80L184.665 83.75H180.335L182.5 80Z" fill="#29CF96"/>
<path d="M182.5 100L184.665 103.75H180.335L182.5 100Z" fill="#29CF96"/>
<path d="M182.5 120L184.665 123.75H180.335L182.5 120Z" fill="#29CF96"/>
<path d="M182.5 140L184.665 143.75H180.335L182.5 140Z" fill="#29CF96"/>
<path d="M182.5 160L184.665 163.75H180.335L182.5 160Z" fill="#29CF96"/>
<path d="M182.5 180L184.665 183.75H180.335L182.5 180Z" fill="#29CF96"/>
<path d="M182.5 200L184.665 203.75H180.335L182.5 200Z" fill="#29CF96"/>
<path d="M182.5 220L184.665 223.75H180.335L182.5 220Z" fill="#29CF96"/>
<path d="M182.5 240L184.665 243.75H180.335L182.5 240Z" fill="#29CF96"/>
<path d="M182.5 260L184.665 263.75H180.335L182.5 260Z" fill="#29CF96"/>
<path d="M182.5 280L184.665 283.75H180.335L182.5 280Z" fill="#29CF96"/>
<path d="M182.5 300L184.665 303.75H180.335L182.5 300Z" fill="#29CF96"/>
<path d="M182.5 320L184.665 323.75H180.335L182.5 320Z" fill="#29CF96"/>
<path d="M182.5 340L184.665 343.75H180.335L182.5 340Z" fill="#29CF96"/>
<path d="M182.5 360L184.665 363.75H180.335L182.5 360Z" fill="#29CF96"/>
<path d="M234.5 15L232.335 11.25L236.665 11.25L234.5 15Z" fill="#29CF96"/>
<path d="M234.5 35L232.335 31.25L236.665 31.25L234.5 35Z" fill="#29CF96"/>
<path d="M234.5 55L232.335 51.25L236.665 51.25L234.5 55Z" fill="#29CF96"/>
<path d="M234.5 75L232.335 71.25L236.665 71.25L234.5 75Z" fill="#29CF96"/>
<path d="M234.5 95L232.335 91.25L236.665 91.25L234.5 95Z" fill="#29CF96"/>
<path d="M234.5 115L232.335 111.25L236.665 111.25L234.5 115Z" fill="#29CF96"/>
<path d="M234.5 135L232.335 131.25L236.665 131.25L234.5 135Z" fill="#29CF96"/>
<path d="M234.5 155L232.335 151.25L236.665 151.25L234.5 155Z" fill="#29CF96"/>
<path d="M234.5 175L232.335 171.25L236.665 171.25L234.5 175Z" fill="#29CF96"/>
<path d="M234.5 195L232.335 191.25L236.665 191.25L234.5 195Z" fill="#29CF96"/>
<path d="M234.5 215L232.335 211.25L236.665 211.25L234.5 215Z" fill="#29CF96"/>
<path d="M234.5 235L232.335 231.25L236.665 231.25L234.5 235Z" fill="#29CF96"/>
<path d="M234.5 255L232.335 251.25L236.665 251.25L234.5 255Z" fill="#29CF96"/>
<path d="M234.5 275L232.335 271.25L236.665 271.25L234.5 275Z" fill="#29CF96"/>
<path d="M234.5 295L232.335 291.25L236.665 291.25L234.5 295Z" fill="#29CF96"/>
<path d="M234.5 315L232.335 311.25L236.665 311.25L234.5 315Z" fill="#29CF96"/>
<path d="M234.5 335L232.335 331.25L236.665 331.25L234.5 335Z" fill="#29CF96"/>
<path d="M234.5 355L232.335 351.25L236.665 351.25L234.5 355Z" fill="#29CF96"/>
<path d="M234.5 375L232.335 371.25L236.665 371.25L234.5 375Z" fill="#29CF96"/>
<path d="M197.5 0L199.665 3.75H195.335L197.5 0Z" fill="#29CF96"/>
<path d="M197.5 20L199.665 23.75H195.335L197.5 20Z" fill="#29CF96"/>
<path d="M197.5 40L199.665 43.75H195.335L197.5 40Z" fill="#29CF96"/>
<path d="M197.5 60L199.665 63.75H195.335L197.5 60Z" fill="#29CF96"/>
<path d="M197.5 80L199.665 83.75H195.335L197.5 80Z" fill="#29CF96"/>
<path d="M197.5 100L199.665 103.75H195.335L197.5 100Z" fill="#29CF96"/>
<path d="M197.5 120L199.665 123.75H195.335L197.5 120Z" fill="#29CF96"/>
<path d="M197.5 140L199.665 143.75H195.335L197.5 140Z" fill="#29CF96"/>
<path d="M197.5 160L199.665 163.75H195.335L197.5 160Z" fill="#29CF96"/>
<path d="M197.5 180L199.665 183.75H195.335L197.5 180Z" fill="#29CF96"/>
<path d="M197.5 200L199.665 203.75H195.335L197.5 200Z" fill="#29CF96"/>
<path d="M197.5 220L199.665 223.75H195.335L197.5 220Z" fill="#29CF96"/>
<path d="M197.5 240L199.665 243.75H195.335L197.5 240Z" fill="#29CF96"/>
<path d="M197.5 260L199.665 263.75H195.335L197.5 260Z" fill="#29CF96"/>
<path d="M197.5 280L199.665 283.75H195.335L197.5 280Z" fill="#29CF96"/>
<path d="M197.5 300L199.665 303.75H195.335L197.5 300Z" fill="#29CF96"/>
<path d="M197.5 320L199.665 323.75H195.335L197.5 320Z" fill="#29CF96"/>
<path d="M197.5 340L199.665 343.75H195.335L197.5 340Z" fill="#29CF96"/>
<path d="M197.5 360L199.665 363.75H195.335L197.5 360Z" fill="#29CF96"/>
<path d="M219.5 15L217.335 11.25L221.665 11.25L219.5 15Z" fill="#29CF96"/>
<path d="M219.5 35L217.335 31.25L221.665 31.25L219.5 35Z" fill="#29CF96"/>
<path d="M219.5 55L217.335 51.25L221.665 51.25L219.5 55Z" fill="#29CF96"/>
<path d="M219.5 75L217.335 71.25L221.665 71.25L219.5 75Z" fill="#29CF96"/>
<path d="M219.5 95L217.335 91.25L221.665 91.25L219.5 95Z" fill="#29CF96"/>
<path d="M219.5 115L217.335 111.25L221.665 111.25L219.5 115Z" fill="#29CF96"/>
<path d="M219.5 135L217.335 131.25L221.665 131.25L219.5 135Z" fill="#29CF96"/>
<path d="M219.5 155L217.335 151.25L221.665 151.25L219.5 155Z" fill="#29CF96"/>
<path d="M219.5 175L217.335 171.25L221.665 171.25L219.5 175Z" fill="#29CF96"/>
<path d="M219.5 195L217.335 191.25L221.665 191.25L219.5 195Z" fill="#29CF96"/>
<path d="M219.5 215L217.335 211.25L221.665 211.25L219.5 215Z" fill="#29CF96"/>
<path d="M219.5 235L217.335 231.25L221.665 231.25L219.5 235Z" fill="#29CF96"/>
<path d="M219.5 255L217.335 251.25L221.665 251.25L219.5 255Z" fill="#29CF96"/>
<path d="M219.5 275L217.335 271.25L221.665 271.25L219.5 275Z" fill="#29CF96"/>
<path d="M219.5 295L217.335 291.25L221.665 291.25L219.5 295Z" fill="#29CF96"/>
<path d="M219.5 315L217.335 311.25L221.665 311.25L219.5 315Z" fill="#29CF96"/>
<path d="M219.5 335L217.335 331.25L221.665 331.25L219.5 335Z" fill="#29CF96"/>
<path d="M219.5 355L217.335 351.25L221.665 351.25L219.5 355Z" fill="#29CF96"/>
<path d="M219.5 375L217.335 371.25L221.665 371.25L219.5 375Z" fill="#29CF96"/>
<path d="M212.5 0L214.665 3.75H210.335L212.5 0Z" fill="#29CF96"/>
<path d="M212.5 20L214.665 23.75H210.335L212.5 20Z" fill="#29CF96"/>
<path d="M212.5 40L214.665 43.75H210.335L212.5 40Z" fill="#29CF96"/>
<path d="M212.5 60L214.665 63.75H210.335L212.5 60Z" fill="#29CF96"/>
<path d="M212.5 80L214.665 83.75H210.335L212.5 80Z" fill="#29CF96"/>
<path d="M212.5 100L214.665 103.75H210.335L212.5 100Z" fill="#29CF96"/>
<path d="M212.5 120L214.665 123.75H210.335L212.5 120Z" fill="#29CF96"/>
<path d="M212.5 140L214.665 143.75H210.335L212.5 140Z" fill="#29CF96"/>
<path d="M212.5 160L214.665 163.75H210.335L212.5 160Z" fill="#29CF96"/>
<path d="M212.5 180L214.665 183.75H210.335L212.5 180Z" fill="#29CF96"/>
<path d="M212.5 200L214.665 203.75H210.335L212.5 200Z" fill="#29CF96"/>
<path d="M212.5 220L214.665 223.75H210.335L212.5 220Z" fill="#29CF96"/>
<path d="M212.5 240L214.665 243.75H210.335L212.5 240Z" fill="#29CF96"/>
<path d="M212.5 260L214.665 263.75H210.335L212.5 260Z" fill="#29CF96"/>
<path d="M212.5 280L214.665 283.75H210.335L212.5 280Z" fill="#29CF96"/>
<path d="M212.5 300L214.665 303.75H210.335L212.5 300Z" fill="#29CF96"/>
<path d="M212.5 320L214.665 323.75H210.335L212.5 320Z" fill="#29CF96"/>
<path d="M212.5 340L214.665 343.75H210.335L212.5 340Z" fill="#29CF96"/>
<path d="M212.5 360L214.665 363.75H210.335L212.5 360Z" fill="#29CF96"/>
<path d="M204.5 15L202.335 11.25L206.665 11.25L204.5 15Z" fill="#29CF96"/>
<path d="M204.5 35L202.335 31.25L206.665 31.25L204.5 35Z" fill="#29CF96"/>
<path d="M204.5 55L202.335 51.25L206.665 51.25L204.5 55Z" fill="#29CF96"/>
<path d="M204.5 75L202.335 71.25L206.665 71.25L204.5 75Z" fill="#29CF96"/>
<path d="M204.5 95L202.335 91.25L206.665 91.25L204.5 95Z" fill="#29CF96"/>
<path d="M204.5 115L202.335 111.25L206.665 111.25L204.5 115Z" fill="#29CF96"/>
<path d="M204.5 135L202.335 131.25L206.665 131.25L204.5 135Z" fill="#29CF96"/>
<path d="M204.5 155L202.335 151.25L206.665 151.25L204.5 155Z" fill="#29CF96"/>
<path d="M204.5 175L202.335 171.25L206.665 171.25L204.5 175Z" fill="#29CF96"/>
<path d="M204.5 195L202.335 191.25L206.665 191.25L204.5 195Z" fill="#29CF96"/>
<path d="M204.5 215L202.335 211.25L206.665 211.25L204.5 215Z" fill="#29CF96"/>
<path d="M204.5 235L202.335 231.25L206.665 231.25L204.5 235Z" fill="#29CF96"/>
<path d="M204.5 255L202.335 251.25L206.665 251.25L204.5 255Z" fill="#29CF96"/>
<path d="M204.5 275L202.335 271.25L206.665 271.25L204.5 275Z" fill="#29CF96"/>
<path d="M204.5 295L202.335 291.25L206.665 291.25L204.5 295Z" fill="#29CF96"/>
<path d="M204.5 315L202.335 311.25L206.665 311.25L204.5 315Z" fill="#29CF96"/>
<path d="M204.5 335L202.335 331.25L206.665 331.25L204.5 335Z" fill="#29CF96"/>
<path d="M204.5 355L202.335 351.25L206.665 351.25L204.5 355Z" fill="#29CF96"/>
<path d="M204.5 375L202.335 371.25L206.665 371.25L204.5 375Z" fill="#29CF96"/>
<path d="M227.5 0L229.665 3.75H225.335L227.5 0Z" fill="#29CF96"/>
<path d="M227.5 20L229.665 23.75H225.335L227.5 20Z" fill="#29CF96"/>
<path d="M227.5 40L229.665 43.75H225.335L227.5 40Z" fill="#29CF96"/>
<path d="M227.5 60L229.665 63.75H225.335L227.5 60Z" fill="#29CF96"/>
<path d="M227.5 80L229.665 83.75H225.335L227.5 80Z" fill="#29CF96"/>
<path d="M227.5 100L229.665 103.75H225.335L227.5 100Z" fill="#29CF96"/>
<path d="M227.5 120L229.665 123.75H225.335L227.5 120Z" fill="#29CF96"/>
<path d="M227.5 140L229.665 143.75H225.335L227.5 140Z" fill="#29CF96"/>
<path d="M227.5 160L229.665 163.75H225.335L227.5 160Z" fill="#29CF96"/>
<path d="M227.5 180L229.665 183.75H225.335L227.5 180Z" fill="#29CF96"/>
<path d="M227.5 200L229.665 203.75H225.335L227.5 200Z" fill="#29CF96"/>
<path d="M227.5 220L229.665 223.75H225.335L227.5 220Z" fill="#29CF96"/>
<path d="M227.5 240L229.665 243.75H225.335L227.5 240Z" fill="#29CF96"/>
<path d="M227.5 260L229.665 263.75H225.335L227.5 260Z" fill="#29CF96"/>
<path d="M227.5 280L229.665 283.75H225.335L227.5 280Z" fill="#29CF96"/>
<path d="M227.5 300L229.665 303.75H225.335L227.5 300Z" fill="#29CF96"/>
<path d="M227.5 320L229.665 323.75H225.335L227.5 320Z" fill="#29CF96"/>
<path d="M227.5 340L229.665 343.75H225.335L227.5 340Z" fill="#29CF96"/>
<path d="M227.5 360L229.665 363.75H225.335L227.5 360Z" fill="#29CF96"/>
<path d="M189.5 15L187.335 11.25L191.665 11.25L189.5 15Z" fill="#29CF96"/>
<path d="M189.5 35L187.335 31.25L191.665 31.25L189.5 35Z" fill="#29CF96"/>
<path d="M189.5 55L187.335 51.25L191.665 51.25L189.5 55Z" fill="#29CF96"/>
<path d="M189.5 75L187.335 71.25L191.665 71.25L189.5 75Z" fill="#29CF96"/>
<path d="M189.5 95L187.335 91.25L191.665 91.25L189.5 95Z" fill="#29CF96"/>
<path d="M189.5 115L187.335 111.25L191.665 111.25L189.5 115Z" fill="#29CF96"/>
<path d="M189.5 135L187.335 131.25L191.665 131.25L189.5 135Z" fill="#29CF96"/>
<path d="M189.5 155L187.335 151.25L191.665 151.25L189.5 155Z" fill="#29CF96"/>
<path d="M189.5 175L187.335 171.25L191.665 171.25L189.5 175Z" fill="#29CF96"/>
<path d="M189.5 195L187.335 191.25L191.665 191.25L189.5 195Z" fill="#29CF96"/>
<path d="M189.5 215L187.335 211.25L191.665 211.25L189.5 215Z" fill="#29CF96"/>
<path d="M189.5 235L187.335 231.25L191.665 231.25L189.5 235Z" fill="#29CF96"/>
<path d="M189.5 255L187.335 251.25L191.665 251.25L189.5 255Z" fill="#29CF96"/>
<path d="M189.5 275L187.335 271.25L191.665 271.25L189.5 275Z" fill="#29CF96"/>
<path d="M189.5 295L187.335 291.25L191.665 291.25L189.5 295Z" fill="#29CF96"/>
<path d="M189.5 315L187.335 311.25L191.665 311.25L189.5 315Z" fill="#29CF96"/>
<path d="M189.5 335L187.335 331.25L191.665 331.25L189.5 335Z" fill="#29CF96"/>
<path d="M189.5 355L187.335 351.25L191.665 351.25L189.5 355Z" fill="#29CF96"/>
<path d="M189.5 375L187.335 371.25L191.665 371.25L189.5 375Z" fill="#29CF96"/>
<path d="M242.5 0L244.665 3.75H240.335L242.5 0Z" fill="#29CF96"/>
<path d="M242.5 20L244.665 23.75H240.335L242.5 20Z" fill="#29CF96"/>
<path d="M242.5 40L244.665 43.75H240.335L242.5 40Z" fill="#29CF96"/>
<path d="M242.5 60L244.665 63.75H240.335L242.5 60Z" fill="#29CF96"/>
<path d="M242.5 80L244.665 83.75H240.335L242.5 80Z" fill="#29CF96"/>
<path d="M242.5 100L244.665 103.75H240.335L242.5 100Z" fill="#29CF96"/>
<path d="M242.5 120L244.665 123.75H240.335L242.5 120Z" fill="#29CF96"/>
<path d="M242.5 140L244.665 143.75H240.335L242.5 140Z" fill="#29CF96"/>
<path d="M242.5 160L244.665 163.75H240.335L242.5 160Z" fill="#29CF96"/>
<path d="M242.5 180L244.665 183.75H240.335L242.5 180Z" fill="#29CF96"/>
<path d="M242.5 200L244.665 203.75H240.335L242.5 200Z" fill="#29CF96"/>
<path d="M242.5 220L244.665 223.75H240.335L242.5 220Z" fill="#29CF96"/>
<path d="M242.5 240L244.665 243.75H240.335L242.5 240Z" fill="#29CF96"/>
<path d="M242.5 260L244.665 263.75H240.335L242.5 260Z" fill="#29CF96"/>
<path d="M242.5 280L244.665 283.75H240.335L242.5 280Z" fill="#29CF96"/>
<path d="M242.5 300L244.665 303.75H240.335L242.5 300Z" fill="#29CF96"/>
<path d="M242.5 320L244.665 323.75H240.335L242.5 320Z" fill="#29CF96"/>
<path d="M242.5 340L244.665 343.75H240.335L242.5 340Z" fill="#29CF96"/>
<path d="M242.5 360L244.665 363.75H240.335L242.5 360Z" fill="#29CF96"/>
<path d="M174.5 15L172.335 11.25L176.665 11.25L174.5 15Z" fill="#29CF96"/>
<path d="M174.5 35L172.335 31.25L176.665 31.25L174.5 35Z" fill="#29CF96"/>
<path d="M174.5 55L172.335 51.25L176.665 51.25L174.5 55Z" fill="#29CF96"/>
<path d="M174.5 75L172.335 71.25L176.665 71.25L174.5 75Z" fill="#29CF96"/>
<path d="M174.5 95L172.335 91.25L176.665 91.25L174.5 95Z" fill="#29CF96"/>
<path d="M174.5 115L172.335 111.25L176.665 111.25L174.5 115Z" fill="#29CF96"/>
<path d="M174.5 135L172.335 131.25L176.665 131.25L174.5 135Z" fill="#29CF96"/>
<path d="M174.5 155L172.335 151.25L176.665 151.25L174.5 155Z" fill="#29CF96"/>
<path d="M174.5 175L172.335 171.25L176.665 171.25L174.5 175Z" fill="#29CF96"/>
<path d="M174.5 195L172.335 191.25L176.665 191.25L174.5 195Z" fill="#29CF96"/>
<path d="M174.5 215L172.335 211.25L176.665 211.25L174.5 215Z" fill="#29CF96"/>
<path d="M174.5 235L172.335 231.25L176.665 231.25L174.5 235Z" fill="#29CF96"/>
<path d="M174.5 255L172.335 251.25L176.665 251.25L174.5 255Z" fill="#29CF96"/>
<path d="M174.5 275L172.335 271.25L176.665 271.25L174.5 275Z" fill="#29CF96"/>
<path d="M174.5 295L172.335 291.25L176.665 291.25L174.5 295Z" fill="#29CF96"/>
<path d="M174.5 315L172.335 311.25L176.665 311.25L174.5 315Z" fill="#29CF96"/>
<path d="M174.5 335L172.335 331.25L176.665 331.25L174.5 335Z" fill="#29CF96"/>
<path d="M174.5 355L172.335 351.25L176.665 351.25L174.5 355Z" fill="#29CF96"/>
<path d="M174.5 375L172.335 371.25L176.665 371.25L174.5 375Z" fill="#29CF96"/>
<path d="M257.5 0L259.665 3.75H255.335L257.5 0Z" fill="#29CF96"/>
<path d="M257.5 20L259.665 23.75H255.335L257.5 20Z" fill="#29CF96"/>
<path d="M257.5 40L259.665 43.75H255.335L257.5 40Z" fill="#29CF96"/>
<path d="M257.5 60L259.665 63.75H255.335L257.5 60Z" fill="#29CF96"/>
<path d="M257.5 80L259.665 83.75H255.335L257.5 80Z" fill="#29CF96"/>
<path d="M257.5 100L259.665 103.75H255.335L257.5 100Z" fill="#29CF96"/>
<path d="M257.5 120L259.665 123.75H255.335L257.5 120Z" fill="#29CF96"/>
<path d="M257.5 140L259.665 143.75H255.335L257.5 140Z" fill="#29CF96"/>
<path d="M257.5 160L259.665 163.75H255.335L257.5 160Z" fill="#29CF96"/>
<path d="M257.5 180L259.665 183.75H255.335L257.5 180Z" fill="#29CF96"/>
<path d="M257.5 200L259.665 203.75H255.335L257.5 200Z" fill="#29CF96"/>
<path d="M257.5 220L259.665 223.75H255.335L257.5 220Z" fill="#29CF96"/>
<path d="M257.5 240L259.665 243.75H255.335L257.5 240Z" fill="#29CF96"/>
<path d="M257.5 260L259.665 263.75H255.335L257.5 260Z" fill="#29CF96"/>
<path d="M257.5 280L259.665 283.75H255.335L257.5 280Z" fill="#29CF96"/>
<path d="M257.5 300L259.665 303.75H255.335L257.5 300Z" fill="#29CF96"/>
<path d="M257.5 320L259.665 323.75H255.335L257.5 320Z" fill="#29CF96"/>
<path d="M257.5 340L259.665 343.75H255.335L257.5 340Z" fill="#29CF96"/>
<path d="M257.5 360L259.665 363.75H255.335L257.5 360Z" fill="#29CF96"/>
<path d="M159.5 15L157.335 11.25L161.665 11.25L159.5 15Z" fill="#29CF96"/>
<path d="M159.5 35L157.335 31.25L161.665 31.25L159.5 35Z" fill="#29CF96"/>
<path d="M159.5 55L157.335 51.25L161.665 51.25L159.5 55Z" fill="#29CF96"/>
<path d="M159.5 75L157.335 71.25L161.665 71.25L159.5 75Z" fill="#29CF96"/>
<path d="M159.5 95L157.335 91.25L161.665 91.25L159.5 95Z" fill="#29CF96"/>
<path d="M159.5 115L157.335 111.25L161.665 111.25L159.5 115Z" fill="#29CF96"/>
<path d="M159.5 135L157.335 131.25L161.665 131.25L159.5 135Z" fill="#29CF96"/>
<path d="M159.5 155L157.335 151.25L161.665 151.25L159.5 155Z" fill="#29CF96"/>
<path d="M159.5 175L157.335 171.25L161.665 171.25L159.5 175Z" fill="#29CF96"/>
<path d="M159.5 195L157.335 191.25L161.665 191.25L159.5 195Z" fill="#29CF96"/>
<path d="M159.5 215L157.335 211.25L161.665 211.25L159.5 215Z" fill="#29CF96"/>
<path d="M159.5 235L157.335 231.25L161.665 231.25L159.5 235Z" fill="#29CF96"/>
<path d="M159.5 255L157.335 251.25L161.665 251.25L159.5 255Z" fill="#29CF96"/>
<path d="M159.5 275L157.335 271.25L161.665 271.25L159.5 275Z" fill="#29CF96"/>
<path d="M159.5 295L157.335 291.25L161.665 291.25L159.5 295Z" fill="#29CF96"/>
<path d="M159.5 315L157.335 311.25L161.665 311.25L159.5 315Z" fill="#29CF96"/>
<path d="M159.5 335L157.335 331.25L161.665 331.25L159.5 335Z" fill="#29CF96"/>
<path d="M159.5 355L157.335 351.25L161.665 351.25L159.5 355Z" fill="#29CF96"/>
<path d="M159.5 375L157.335 371.25L161.665 371.25L159.5 375Z" fill="#29CF96"/>
<path d="M272.5 0L274.665 3.75H270.335L272.5 0Z" fill="#29CF96"/>
<path d="M272.5 20L274.665 23.75H270.335L272.5 20Z" fill="#29CF96"/>
<path d="M272.5 40L274.665 43.75H270.335L272.5 40Z" fill="#29CF96"/>
<path d="M272.5 60L274.665 63.75H270.335L272.5 60Z" fill="#29CF96"/>
<path d="M272.5 80L274.665 83.75H270.335L272.5 80Z" fill="#29CF96"/>
<path d="M272.5 100L274.665 103.75H270.335L272.5 100Z" fill="#29CF96"/>
<path d="M272.5 120L274.665 123.75H270.335L272.5 120Z" fill="#29CF96"/>
<path d="M272.5 140L274.665 143.75H270.335L272.5 140Z" fill="#29CF96"/>
<path d="M272.5 160L274.665 163.75H270.335L272.5 160Z" fill="#29CF96"/>
<path d="M272.5 180L274.665 183.75H270.335L272.5 180Z" fill="#29CF96"/>
<path d="M272.5 200L274.665 203.75H270.335L272.5 200Z" fill="#29CF96"/>
<path d="M272.5 220L274.665 223.75H270.335L272.5 220Z" fill="#29CF96"/>
<path d="M272.5 240L274.665 243.75H270.335L272.5 240Z" fill="#29CF96"/>
<path d="M272.5 260L274.665 263.75H270.335L272.5 260Z" fill="#29CF96"/>
<path d="M272.5 280L274.665 283.75H270.335L272.5 280Z" fill="#29CF96"/>
<path d="M272.5 300L274.665 303.75H270.335L272.5 300Z" fill="#29CF96"/>
<path d="M272.5 320L274.665 323.75H270.335L272.5 320Z" fill="#29CF96"/>
<path d="M272.5 340L274.665 343.75H270.335L272.5 340Z" fill="#29CF96"/>
<path d="M272.5 360L274.665 363.75H270.335L272.5 360Z" fill="#29CF96"/>
<path d="M144.5 15L142.335 11.25L146.665 11.25L144.5 15Z" fill="#29CF96"/>
<path d="M144.5 35L142.335 31.25L146.665 31.25L144.5 35Z" fill="#29CF96"/>
<path d="M144.5 55L142.335 51.25L146.665 51.25L144.5 55Z" fill="#29CF96"/>
<path d="M144.5 75L142.335 71.25L146.665 71.25L144.5 75Z" fill="#29CF96"/>
<path d="M144.5 95L142.335 91.25L146.665 91.25L144.5 95Z" fill="#29CF96"/>
<path d="M144.5 115L142.335 111.25L146.665 111.25L144.5 115Z" fill="#29CF96"/>
<path d="M144.5 135L142.335 131.25L146.665 131.25L144.5 135Z" fill="#29CF96"/>
<path d="M144.5 155L142.335 151.25L146.665 151.25L144.5 155Z" fill="#29CF96"/>
<path d="M144.5 175L142.335 171.25L146.665 171.25L144.5 175Z" fill="#29CF96"/>
<path d="M144.5 195L142.335 191.25L146.665 191.25L144.5 195Z" fill="#29CF96"/>
<path d="M144.5 215L142.335 211.25L146.665 211.25L144.5 215Z" fill="#29CF96"/>
<path d="M144.5 235L142.335 231.25L146.665 231.25L144.5 235Z" fill="#29CF96"/>
<path d="M144.5 255L142.335 251.25L146.665 251.25L144.5 255Z" fill="#29CF96"/>
<path d="M144.5 275L142.335 271.25L146.665 271.25L144.5 275Z" fill="#29CF96"/>
<path d="M144.5 295L142.335 291.25L146.665 291.25L144.5 295Z" fill="#29CF96"/>
<path d="M144.5 315L142.335 311.25L146.665 311.25L144.5 315Z" fill="#29CF96"/>
<path d="M144.5 335L142.335 331.25L146.665 331.25L144.5 335Z" fill="#29CF96"/>
<path d="M144.5 355L142.335 351.25L146.665 351.25L144.5 355Z" fill="#29CF96"/>
<path d="M144.5 375L142.335 371.25L146.665 371.25L144.5 375Z" fill="#29CF96"/>
<path d="M287.5 0L289.665 3.75H285.335L287.5 0Z" fill="#29CF96"/>
<path d="M287.5 20L289.665 23.75H285.335L287.5 20Z" fill="#29CF96"/>
<path d="M287.5 40L289.665 43.75H285.335L287.5 40Z" fill="#29CF96"/>
<path d="M287.5 60L289.665 63.75H285.335L287.5 60Z" fill="#29CF96"/>
<path d="M287.5 80L289.665 83.75H285.335L287.5 80Z" fill="#29CF96"/>
<path d="M287.5 100L289.665 103.75H285.335L287.5 100Z" fill="#29CF96"/>
<path d="M287.5 120L289.665 123.75H285.335L287.5 120Z" fill="#29CF96"/>
<path d="M287.5 140L289.665 143.75H285.335L287.5 140Z" fill="#29CF96"/>
<path d="M287.5 160L289.665 163.75H285.335L287.5 160Z" fill="#29CF96"/>
<path d="M287.5 180L289.665 183.75H285.335L287.5 180Z" fill="#29CF96"/>
<path d="M287.5 200L289.665 203.75H285.335L287.5 200Z" fill="#29CF96"/>
<path d="M287.5 220L289.665 223.75H285.335L287.5 220Z" fill="#29CF96"/>
<path d="M287.5 240L289.665 243.75H285.335L287.5 240Z" fill="#29CF96"/>
<path d="M287.5 260L289.665 263.75H285.335L287.5 260Z" fill="#29CF96"/>
<path d="M287.5 280L289.665 283.75H285.335L287.5 280Z" fill="#29CF96"/>
<path d="M287.5 300L289.665 303.75H285.335L287.5 300Z" fill="#29CF96"/>
<path d="M287.5 320L289.665 323.75H285.335L287.5 320Z" fill="#29CF96"/>
<path d="M287.5 340L289.665 343.75H285.335L287.5 340Z" fill="#29CF96"/>
<path d="M287.5 360L289.665 363.75H285.335L287.5 360Z" fill="#29CF96"/>
<path d="M129.5 15L127.335 11.25L131.665 11.25L129.5 15Z" fill="#29CF96"/>
<path d="M129.5 35L127.335 31.25L131.665 31.25L129.5 35Z" fill="#29CF96"/>
<path d="M129.5 55L127.335 51.25L131.665 51.25L129.5 55Z" fill="#29CF96"/>
<path d="M129.5 75L127.335 71.25L131.665 71.25L129.5 75Z" fill="#29CF96"/>
<path d="M129.5 95L127.335 91.25L131.665 91.25L129.5 95Z" fill="#29CF96"/>
<path d="M129.5 115L127.335 111.25L131.665 111.25L129.5 115Z" fill="#29CF96"/>
<path d="M129.5 135L127.335 131.25L131.665 131.25L129.5 135Z" fill="#29CF96"/>
<path d="M129.5 155L127.335 151.25L131.665 151.25L129.5 155Z" fill="#29CF96"/>
<path d="M129.5 175L127.335 171.25L131.665 171.25L129.5 175Z" fill="#29CF96"/>
<path d="M129.5 195L127.335 191.25L131.665 191.25L129.5 195Z" fill="#29CF96"/>
<path d="M129.5 215L127.335 211.25L131.665 211.25L129.5 215Z" fill="#29CF96"/>
<path d="M129.5 235L127.335 231.25L131.665 231.25L129.5 235Z" fill="#29CF96"/>
<path d="M129.5 255L127.335 251.25L131.665 251.25L129.5 255Z" fill="#29CF96"/>
<path d="M129.5 275L127.335 271.25L131.665 271.25L129.5 275Z" fill="#29CF96"/>
<path d="M129.5 295L127.335 291.25L131.665 291.25L129.5 295Z" fill="#29CF96"/>
<path d="M129.5 315L127.335 311.25L131.665 311.25L129.5 315Z" fill="#29CF96"/>
<path d="M129.5 335L127.335 331.25L131.665 331.25L129.5 335Z" fill="#29CF96"/>
<path d="M129.5 355L127.335 351.25L131.665 351.25L129.5 355Z" fill="#29CF96"/>
<path d="M129.5 375L127.335 371.25L131.665 371.25L129.5 375Z" fill="#29CF96"/>
<path d="M302.5 0L304.665 3.75H300.335L302.5 0Z" fill="#29CF96"/>
<path d="M302.5 20L304.665 23.75H300.335L302.5 20Z" fill="#29CF96"/>
<path d="M302.5 40L304.665 43.75H300.335L302.5 40Z" fill="#29CF96"/>
<path d="M302.5 60L304.665 63.75H300.335L302.5 60Z" fill="#29CF96"/>
<path d="M302.5 80L304.665 83.75H300.335L302.5 80Z" fill="#29CF96"/>
<path d="M302.5 100L304.665 103.75H300.335L302.5 100Z" fill="#29CF96"/>
<path d="M302.5 120L304.665 123.75H300.335L302.5 120Z" fill="#29CF96"/>
<path d="M302.5 140L304.665 143.75H300.335L302.5 140Z" fill="#29CF96"/>
<path d="M302.5 160L304.665 163.75H300.335L302.5 160Z" fill="#29CF96"/>
<path d="M302.5 180L304.665 183.75H300.335L302.5 180Z" fill="#29CF96"/>
<path d="M302.5 200L304.665 203.75H300.335L302.5 200Z" fill="#29CF96"/>
<path d="M302.5 220L304.665 223.75H300.335L302.5 220Z" fill="#29CF96"/>
<path d="M302.5 240L304.665 243.75H300.335L302.5 240Z" fill="#29CF96"/>
<path d="M302.5 260L304.665 263.75H300.335L302.5 260Z" fill="#29CF96"/>
<path d="M302.5 280L304.665 283.75H300.335L302.5 280Z" fill="#29CF96"/>
<path d="M302.5 300L304.665 303.75H300.335L302.5 300Z" fill="#29CF96"/>
<path d="M302.5 320L304.665 323.75H300.335L302.5 320Z" fill="#29CF96"/>
<path d="M302.5 340L304.665 343.75H300.335L302.5 340Z" fill="#29CF96"/>
<path d="M302.5 360L304.665 363.75H300.335L302.5 360Z" fill="#29CF96"/>
<path d="M114.5 15L112.335 11.25L116.665 11.25L114.5 15Z" fill="#29CF96"/>
<path d="M114.5 35L112.335 31.25L116.665 31.25L114.5 35Z" fill="#29CF96"/>
<path d="M114.5 55L112.335 51.25L116.665 51.25L114.5 55Z" fill="#29CF96"/>
<path d="M114.5 75L112.335 71.25L116.665 71.25L114.5 75Z" fill="#29CF96"/>
<path d="M114.5 95L112.335 91.25L116.665 91.25L114.5 95Z" fill="#29CF96"/>
<path d="M114.5 115L112.335 111.25L116.665 111.25L114.5 115Z" fill="#29CF96"/>
<path d="M114.5 135L112.335 131.25L116.665 131.25L114.5 135Z" fill="#29CF96"/>
<path d="M114.5 155L112.335 151.25L116.665 151.25L114.5 155Z" fill="#29CF96"/>
<path d="M114.5 175L112.335 171.25L116.665 171.25L114.5 175Z" fill="#29CF96"/>
<path d="M114.5 195L112.335 191.25L116.665 191.25L114.5 195Z" fill="#29CF96"/>
<path d="M114.5 215L112.335 211.25L116.665 211.25L114.5 215Z" fill="#29CF96"/>
<path d="M114.5 235L112.335 231.25L116.665 231.25L114.5 235Z" fill="#29CF96"/>
<path d="M114.5 255L112.335 251.25L116.665 251.25L114.5 255Z" fill="#29CF96"/>
<path d="M114.5 275L112.335 271.25L116.665 271.25L114.5 275Z" fill="#29CF96"/>
<path d="M114.5 295L112.335 291.25L116.665 291.25L114.5 295Z" fill="#29CF96"/>
<path d="M114.5 315L112.335 311.25L116.665 311.25L114.5 315Z" fill="#29CF96"/>
<path d="M114.5 335L112.335 331.25L116.665 331.25L114.5 335Z" fill="#29CF96"/>
<path d="M114.5 355L112.335 351.25L116.665 351.25L114.5 355Z" fill="#29CF96"/>
<path d="M114.5 375L112.335 371.25L116.665 371.25L114.5 375Z" fill="#29CF96"/>
<path d="M317.5 0L319.665 3.75H315.335L317.5 0Z" fill="#29CF96"/>
<path d="M317.5 20L319.665 23.75H315.335L317.5 20Z" fill="#29CF96"/>
<path d="M317.5 40L319.665 43.75H315.335L317.5 40Z" fill="#29CF96"/>
<path d="M317.5 60L319.665 63.75H315.335L317.5 60Z" fill="#29CF96"/>
<path d="M317.5 80L319.665 83.75H315.335L317.5 80Z" fill="#29CF96"/>
<path d="M317.5 100L319.665 103.75H315.335L317.5 100Z" fill="#29CF96"/>
<path d="M317.5 120L319.665 123.75H315.335L317.5 120Z" fill="#29CF96"/>
<path d="M317.5 140L319.665 143.75H315.335L317.5 140Z" fill="#29CF96"/>
<path d="M317.5 160L319.665 163.75H315.335L317.5 160Z" fill="#29CF96"/>
<path d="M317.5 180L319.665 183.75H315.335L317.5 180Z" fill="#29CF96"/>
<path d="M317.5 200L319.665 203.75H315.335L317.5 200Z" fill="#29CF96"/>
<path d="M317.5 220L319.665 223.75H315.335L317.5 220Z" fill="#29CF96"/>
<path d="M317.5 240L319.665 243.75H315.335L317.5 240Z" fill="#29CF96"/>
<path d="M317.5 260L319.665 263.75H315.335L317.5 260Z" fill="#29CF96"/>
<path d="M317.5 280L319.665 283.75H315.335L317.5 280Z" fill="#29CF96"/>
<path d="M317.5 300L319.665 303.75H315.335L317.5 300Z" fill="#29CF96"/>
<path d="M317.5 320L319.665 323.75H315.335L317.5 320Z" fill="#29CF96"/>
<path d="M317.5 340L319.665 343.75H315.335L317.5 340Z" fill="#29CF96"/>
<path d="M317.5 360L319.665 363.75H315.335L317.5 360Z" fill="#29CF96"/>
<path d="M99.5 15L97.3349 11.25L101.665 11.25L99.5 15Z" fill="#29CF96"/>
<path d="M99.5 35L97.3349 31.25L101.665 31.25L99.5 35Z" fill="#29CF96"/>
<path d="M99.5 55L97.3349 51.25L101.665 51.25L99.5 55Z" fill="#29CF96"/>
<path d="M99.5 75L97.3349 71.25L101.665 71.25L99.5 75Z" fill="#29CF96"/>
<path d="M99.5 95L97.3349 91.25L101.665 91.25L99.5 95Z" fill="#29CF96"/>
<path d="M99.5 115L97.3349 111.25L101.665 111.25L99.5 115Z" fill="#29CF96"/>
<path d="M99.5 135L97.3349 131.25L101.665 131.25L99.5 135Z" fill="#29CF96"/>
<path d="M99.5 155L97.3349 151.25L101.665 151.25L99.5 155Z" fill="#29CF96"/>
<path d="M99.5 175L97.3349 171.25L101.665 171.25L99.5 175Z" fill="#29CF96"/>
<path d="M99.5 195L97.3349 191.25L101.665 191.25L99.5 195Z" fill="#29CF96"/>
<path d="M99.5 215L97.3349 211.25L101.665 211.25L99.5 215Z" fill="#29CF96"/>
<path d="M99.5 235L97.3349 231.25L101.665 231.25L99.5 235Z" fill="#29CF96"/>
<path d="M99.5 255L97.3349 251.25L101.665 251.25L99.5 255Z" fill="#29CF96"/>
<path d="M99.5 275L97.3349 271.25L101.665 271.25L99.5 275Z" fill="#29CF96"/>
<path d="M99.5 295L97.3349 291.25L101.665 291.25L99.5 295Z" fill="#29CF96"/>
<path d="M99.5 315L97.3349 311.25L101.665 311.25L99.5 315Z" fill="#29CF96"/>
<path d="M99.5 335L97.3349 331.25L101.665 331.25L99.5 335Z" fill="#29CF96"/>
<path d="M99.5 355L97.3349 351.25L101.665 351.25L99.5 355Z" fill="#29CF96"/>
<path d="M99.5 375L97.3349 371.25L101.665 371.25L99.5 375Z" fill="#29CF96"/>
<path d="M332.5 0L334.665 3.75H330.335L332.5 0Z" fill="#29CF96"/>
<path d="M332.5 20L334.665 23.75H330.335L332.5 20Z" fill="#29CF96"/>
<path d="M332.5 40L334.665 43.75H330.335L332.5 40Z" fill="#29CF96"/>
<path d="M332.5 60L334.665 63.75H330.335L332.5 60Z" fill="#29CF96"/>
<path d="M332.5 80L334.665 83.75H330.335L332.5 80Z" fill="#29CF96"/>
<path d="M332.5 100L334.665 103.75H330.335L332.5 100Z" fill="#29CF96"/>
<path d="M332.5 120L334.665 123.75H330.335L332.5 120Z" fill="#29CF96"/>
<path d="M332.5 140L334.665 143.75H330.335L332.5 140Z" fill="#29CF96"/>
<path d="M332.5 160L334.665 163.75H330.335L332.5 160Z" fill="#29CF96"/>
<path d="M332.5 180L334.665 183.75H330.335L332.5 180Z" fill="#29CF96"/>
<path d="M332.5 200L334.665 203.75H330.335L332.5 200Z" fill="#29CF96"/>
<path d="M332.5 220L334.665 223.75H330.335L332.5 220Z" fill="#29CF96"/>
<path d="M332.5 240L334.665 243.75H330.335L332.5 240Z" fill="#29CF96"/>
<path d="M332.5 260L334.665 263.75H330.335L332.5 260Z" fill="#29CF96"/>
<path d="M332.5 280L334.665 283.75H330.335L332.5 280Z" fill="#29CF96"/>
<path d="M332.5 300L334.665 303.75H330.335L332.5 300Z" fill="#29CF96"/>
<path d="M332.5 320L334.665 323.75H330.335L332.5 320Z" fill="#29CF96"/>
<path d="M332.5 340L334.665 343.75H330.335L332.5 340Z" fill="#29CF96"/>
<path d="M332.5 360L334.665 363.75H330.335L332.5 360Z" fill="#29CF96"/>
<path d="M84.5 15L82.3349 11.25L86.6651 11.25L84.5 15Z" fill="#29CF96"/>
<path d="M84.5 35L82.3349 31.25L86.6651 31.25L84.5 35Z" fill="#29CF96"/>
<path d="M84.5 55L82.3349 51.25L86.6651 51.25L84.5 55Z" fill="#29CF96"/>
<path d="M84.5 75L82.3349 71.25L86.6651 71.25L84.5 75Z" fill="#29CF96"/>
<path d="M84.5 95L82.3349 91.25L86.6651 91.25L84.5 95Z" fill="#29CF96"/>
<path d="M84.5 115L82.3349 111.25L86.6651 111.25L84.5 115Z" fill="#29CF96"/>
<path d="M84.5 135L82.3349 131.25L86.6651 131.25L84.5 135Z" fill="#29CF96"/>
<path d="M84.5 155L82.3349 151.25L86.6651 151.25L84.5 155Z" fill="#29CF96"/>
<path d="M84.5 175L82.3349 171.25L86.6651 171.25L84.5 175Z" fill="#29CF96"/>
<path d="M84.5 195L82.3349 191.25L86.6651 191.25L84.5 195Z" fill="#29CF96"/>
<path d="M84.5 215L82.3349 211.25L86.6651 211.25L84.5 215Z" fill="#29CF96"/>
<path d="M84.5 235L82.3349 231.25L86.6651 231.25L84.5 235Z" fill="#29CF96"/>
<path d="M84.5 255L82.3349 251.25L86.6651 251.25L84.5 255Z" fill="#29CF96"/>
<path d="M84.5 275L82.3349 271.25L86.6651 271.25L84.5 275Z" fill="#29CF96"/>
<path d="M84.5 295L82.3349 291.25L86.6651 291.25L84.5 295Z" fill="#29CF96"/>
<path d="M84.5 315L82.3349 311.25L86.6651 311.25L84.5 315Z" fill="#29CF96"/>
<path d="M84.5 335L82.3349 331.25L86.6651 331.25L84.5 335Z" fill="#29CF96"/>
<path d="M84.5 355L82.3349 351.25L86.6651 351.25L84.5 355Z" fill="#29CF96"/>
<path d="M84.5 375L82.3349 371.25L86.6651 371.25L84.5 375Z" fill="#29CF96"/>
<path d="M347.5 0L349.665 3.75H345.335L347.5 0Z" fill="#29CF96"/>
<path d="M347.5 20L349.665 23.75H345.335L347.5 20Z" fill="#29CF96"/>
<path d="M347.5 40L349.665 43.75H345.335L347.5 40Z" fill="#29CF96"/>
<path d="M347.5 60L349.665 63.75H345.335L347.5 60Z" fill="#29CF96"/>
<path d="M347.5 80L349.665 83.75H345.335L347.5 80Z" fill="#29CF96"/>
<path d="M347.5 100L349.665 103.75H345.335L347.5 100Z" fill="#29CF96"/>
<path d="M347.5 120L349.665 123.75H345.335L347.5 120Z" fill="#29CF96"/>
<path d="M347.5 140L349.665 143.75H345.335L347.5 140Z" fill="#29CF96"/>
<path d="M347.5 160L349.665 163.75H345.335L347.5 160Z" fill="#29CF96"/>
<path d="M347.5 180L349.665 183.75H345.335L347.5 180Z" fill="#29CF96"/>
<path d="M347.5 200L349.665 203.75H345.335L347.5 200Z" fill="#29CF96"/>
<path d="M347.5 220L349.665 223.75H345.335L347.5 220Z" fill="#29CF96"/>
<path d="M347.5 240L349.665 243.75H345.335L347.5 240Z" fill="#29CF96"/>
<path d="M347.5 260L349.665 263.75H345.335L347.5 260Z" fill="#29CF96"/>
<path d="M347.5 280L349.665 283.75H345.335L347.5 280Z" fill="#29CF96"/>
<path d="M347.5 300L349.665 303.75H345.335L347.5 300Z" fill="#29CF96"/>
<path d="M347.5 320L349.665 323.75H345.335L347.5 320Z" fill="#29CF96"/>
<path d="M347.5 340L349.665 343.75H345.335L347.5 340Z" fill="#29CF96"/>
<path d="M347.5 360L349.665 363.75H345.335L347.5 360Z" fill="#29CF96"/>
<path d="M69.5 15L67.3349 11.25L71.6651 11.25L69.5 15Z" fill="#29CF96"/>
<path d="M69.5 35L67.3349 31.25L71.6651 31.25L69.5 35Z" fill="#29CF96"/>
<path d="M69.5 55L67.3349 51.25L71.6651 51.25L69.5 55Z" fill="#29CF96"/>
<path d="M69.5 75L67.3349 71.25L71.6651 71.25L69.5 75Z" fill="#29CF96"/>
<path d="M69.5 95L67.3349 91.25L71.6651 91.25L69.5 95Z" fill="#29CF96"/>
<path d="M69.5 115L67.3349 111.25L71.6651 111.25L69.5 115Z" fill="#29CF96"/>
<path d="M69.5 135L67.3349 131.25L71.6651 131.25L69.5 135Z" fill="#29CF96"/>
<path d="M69.5 155L67.3349 151.25L71.6651 151.25L69.5 155Z" fill="#29CF96"/>
<path d="M69.5 175L67.3349 171.25L71.6651 171.25L69.5 175Z" fill="#29CF96"/>
<path d="M69.5 195L67.3349 191.25L71.6651 191.25L69.5 195Z" fill="#29CF96"/>
<path d="M69.5 215L67.3349 211.25L71.6651 211.25L69.5 215Z" fill="#29CF96"/>
<path d="M69.5 235L67.3349 231.25L71.6651 231.25L69.5 235Z" fill="#29CF96"/>
<path d="M69.5 255L67.3349 251.25L71.6651 251.25L69.5 255Z" fill="#29CF96"/>
<path d="M69.5 275L67.3349 271.25L71.6651 271.25L69.5 275Z" fill="#29CF96"/>
<path d="M69.5 295L67.3349 291.25L71.6651 291.25L69.5 295Z" fill="#29CF96"/>
<path d="M69.5 315L67.3349 311.25L71.6651 311.25L69.5 315Z" fill="#29CF96"/>
<path d="M69.5 335L67.3349 331.25L71.6651 331.25L69.5 335Z" fill="#29CF96"/>
<path d="M69.5 355L67.3349 351.25L71.6651 351.25L69.5 355Z" fill="#29CF96"/>
<path d="M69.5 375L67.3349 371.25L71.6651 371.25L69.5 375Z" fill="#29CF96"/>
<path d="M362.5 0L364.665 3.75H360.335L362.5 0Z" fill="#29CF96"/>
<path d="M362.5 20L364.665 23.75H360.335L362.5 20Z" fill="#29CF96"/>
<path d="M362.5 40L364.665 43.75H360.335L362.5 40Z" fill="#29CF96"/>
<path d="M362.5 60L364.665 63.75H360.335L362.5 60Z" fill="#29CF96"/>
<path d="M362.5 80L364.665 83.75H360.335L362.5 80Z" fill="#29CF96"/>
<path d="M362.5 100L364.665 103.75H360.335L362.5 100Z" fill="#29CF96"/>
<path d="M362.5 120L364.665 123.75H360.335L362.5 120Z" fill="#29CF96"/>
<path d="M362.5 140L364.665 143.75H360.335L362.5 140Z" fill="#29CF96"/>
<path d="M362.5 160L364.665 163.75H360.335L362.5 160Z" fill="#29CF96"/>
<path d="M362.5 180L364.665 183.75H360.335L362.5 180Z" fill="#29CF96"/>
<path d="M362.5 200L364.665 203.75H360.335L362.5 200Z" fill="#29CF96"/>
<path d="M362.5 220L364.665 223.75H360.335L362.5 220Z" fill="#29CF96"/>
<path d="M362.5 240L364.665 243.75H360.335L362.5 240Z" fill="#29CF96"/>
<path d="M362.5 260L364.665 263.75H360.335L362.5 260Z" fill="#29CF96"/>
<path d="M362.5 280L364.665 283.75H360.335L362.5 280Z" fill="#29CF96"/>
<path d="M362.5 300L364.665 303.75H360.335L362.5 300Z" fill="#29CF96"/>
<path d="M362.5 320L364.665 323.75H360.335L362.5 320Z" fill="#29CF96"/>
<path d="M362.5 340L364.665 343.75H360.335L362.5 340Z" fill="#29CF96"/>
<path d="M362.5 360L364.665 363.75H360.335L362.5 360Z" fill="#29CF96"/>
<path d="M54.5 15L52.3349 11.25L56.6651 11.25L54.5 15Z" fill="#29CF96"/>
<path d="M54.5 35L52.3349 31.25L56.6651 31.25L54.5 35Z" fill="#29CF96"/>
<path d="M54.5 55L52.3349 51.25L56.6651 51.25L54.5 55Z" fill="#29CF96"/>
<path d="M54.5 75L52.3349 71.25L56.6651 71.25L54.5 75Z" fill="#29CF96"/>
<path d="M54.5 95L52.3349 91.25L56.6651 91.25L54.5 95Z" fill="#29CF96"/>
<path d="M54.5 115L52.3349 111.25L56.6651 111.25L54.5 115Z" fill="#29CF96"/>
<path d="M54.5 135L52.3349 131.25L56.6651 131.25L54.5 135Z" fill="#29CF96"/>
<path d="M54.5 155L52.3349 151.25L56.6651 151.25L54.5 155Z" fill="#29CF96"/>
<path d="M54.5 175L52.3349 171.25L56.6651 171.25L54.5 175Z" fill="#29CF96"/>
<path d="M54.5 195L52.3349 191.25L56.6651 191.25L54.5 195Z" fill="#29CF96"/>
<path d="M54.5 215L52.3349 211.25L56.6651 211.25L54.5 215Z" fill="#29CF96"/>
<path d="M54.5 235L52.3349 231.25L56.6651 231.25L54.5 235Z" fill="#29CF96"/>
<path d="M54.5 255L52.3349 251.25L56.6651 251.25L54.5 255Z" fill="#29CF96"/>
<path d="M54.5 275L52.3349 271.25L56.6651 271.25L54.5 275Z" fill="#29CF96"/>
<path d="M54.5 295L52.3349 291.25L56.6651 291.25L54.5 295Z" fill="#29CF96"/>
<path d="M54.5 315L52.3349 311.25L56.6651 311.25L54.5 315Z" fill="#29CF96"/>
<path d="M54.5 335L52.3349 331.25L56.6651 331.25L54.5 335Z" fill="#29CF96"/>
<path d="M54.5 355L52.3349 351.25L56.6651 351.25L54.5 355Z" fill="#29CF96"/>
<path d="M54.5 375L52.3349 371.25L56.6651 371.25L54.5 375Z" fill="#29CF96"/>
<path d="M377.5 0L379.665 3.75H375.335L377.5 0Z" fill="#29CF96"/>
<path d="M377.5 20L379.665 23.75H375.335L377.5 20Z" fill="#29CF96"/>
<path d="M377.5 40L379.665 43.75H375.335L377.5 40Z" fill="#29CF96"/>
<path d="M377.5 60L379.665 63.75H375.335L377.5 60Z" fill="#29CF96"/>
<path d="M377.5 80L379.665 83.75H375.335L377.5 80Z" fill="#29CF96"/>
<path d="M377.5 100L379.665 103.75H375.335L377.5 100Z" fill="#29CF96"/>
<path d="M377.5 120L379.665 123.75H375.335L377.5 120Z" fill="#29CF96"/>
<path d="M377.5 140L379.665 143.75H375.335L377.5 140Z" fill="#29CF96"/>
<path d="M377.5 160L379.665 163.75H375.335L377.5 160Z" fill="#29CF96"/>
<path d="M377.5 180L379.665 183.75H375.335L377.5 180Z" fill="#29CF96"/>
<path d="M377.5 200L379.665 203.75H375.335L377.5 200Z" fill="#29CF96"/>
<path d="M377.5 220L379.665 223.75H375.335L377.5 220Z" fill="#29CF96"/>
<path d="M377.5 240L379.665 243.75H375.335L377.5 240Z" fill="#29CF96"/>
<path d="M377.5 260L379.665 263.75H375.335L377.5 260Z" fill="#29CF96"/>
<path d="M377.5 280L379.665 283.75H375.335L377.5 280Z" fill="#29CF96"/>
<path d="M377.5 300L379.665 303.75H375.335L377.5 300Z" fill="#29CF96"/>
<path d="M377.5 320L379.665 323.75H375.335L377.5 320Z" fill="#29CF96"/>
<path d="M377.5 340L379.665 343.75H375.335L377.5 340Z" fill="#29CF96"/>
<path d="M377.5 360L379.665 363.75H375.335L377.5 360Z" fill="#29CF96"/>
<path d="M39.5 15L37.3349 11.25L41.6651 11.25L39.5 15Z" fill="#29CF96"/>
<path d="M39.5 35L37.3349 31.25L41.6651 31.25L39.5 35Z" fill="#29CF96"/>
<path d="M39.5 55L37.3349 51.25L41.6651 51.25L39.5 55Z" fill="#29CF96"/>
<path d="M39.5 75L37.3349 71.25L41.6651 71.25L39.5 75Z" fill="#29CF96"/>
<path d="M39.5 95L37.3349 91.25L41.6651 91.25L39.5 95Z" fill="#29CF96"/>
<path d="M39.5 115L37.3349 111.25L41.6651 111.25L39.5 115Z" fill="#29CF96"/>
<path d="M39.5 135L37.3349 131.25L41.6651 131.25L39.5 135Z" fill="#29CF96"/>
<path d="M39.5 155L37.3349 151.25L41.6651 151.25L39.5 155Z" fill="#29CF96"/>
<path d="M39.5 175L37.3349 171.25L41.6651 171.25L39.5 175Z" fill="#29CF96"/>
<path d="M39.5 195L37.3349 191.25L41.6651 191.25L39.5 195Z" fill="#29CF96"/>
<path d="M39.5 215L37.3349 211.25L41.6651 211.25L39.5 215Z" fill="#29CF96"/>
<path d="M39.5 235L37.3349 231.25L41.6651 231.25L39.5 235Z" fill="#29CF96"/>
<path d="M39.5 255L37.3349 251.25L41.6651 251.25L39.5 255Z" fill="#29CF96"/>
<path d="M39.5 275L37.3349 271.25L41.6651 271.25L39.5 275Z" fill="#29CF96"/>
<path d="M39.5 295L37.3349 291.25L41.6651 291.25L39.5 295Z" fill="#29CF96"/>
<path d="M39.5 315L37.3349 311.25L41.6651 311.25L39.5 315Z" fill="#29CF96"/>
<path d="M39.5 335L37.3349 331.25L41.6651 331.25L39.5 335Z" fill="#29CF96"/>
<path d="M39.5 355L37.3349 351.25L41.6651 351.25L39.5 355Z" fill="#29CF96"/>
<path d="M39.5 375L37.3349 371.25L41.6651 371.25L39.5 375Z" fill="#29CF96"/>
<path d="M392.5 0L394.665 3.75H390.335L392.5 0Z" fill="#29CF96"/>
<path d="M392.5 20L394.665 23.75H390.335L392.5 20Z" fill="#29CF96"/>
<path d="M392.5 40L394.665 43.75H390.335L392.5 40Z" fill="#29CF96"/>
<path d="M392.5 60L394.665 63.75H390.335L392.5 60Z" fill="#29CF96"/>
<path d="M392.5 80L394.665 83.75H390.335L392.5 80Z" fill="#29CF96"/>
<path d="M392.5 100L394.665 103.75H390.335L392.5 100Z" fill="#29CF96"/>
<path d="M392.5 120L394.665 123.75H390.335L392.5 120Z" fill="#29CF96"/>
<path d="M392.5 140L394.665 143.75H390.335L392.5 140Z" fill="#29CF96"/>
<path d="M392.5 160L394.665 163.75H390.335L392.5 160Z" fill="#29CF96"/>
<path d="M392.5 180L394.665 183.75H390.335L392.5 180Z" fill="#29CF96"/>
<path d="M392.5 200L394.665 203.75H390.335L392.5 200Z" fill="#29CF96"/>
<path d="M392.5 220L394.665 223.75H390.335L392.5 220Z" fill="#29CF96"/>
<path d="M392.5 240L394.665 243.75H390.335L392.5 240Z" fill="#29CF96"/>
<path d="M392.5 260L394.665 263.75H390.335L392.5 260Z" fill="#29CF96"/>
<path d="M392.5 280L394.665 283.75H390.335L392.5 280Z" fill="#29CF96"/>
<path d="M392.5 300L394.665 303.75H390.335L392.5 300Z" fill="#29CF96"/>
<path d="M392.5 320L394.665 323.75H390.335L392.5 320Z" fill="#29CF96"/>
<path d="M392.5 340L394.665 343.75H390.335L392.5 340Z" fill="#29CF96"/>
<path d="M392.5 360L394.665 363.75H390.335L392.5 360Z" fill="#29CF96"/>
<path d="M24.5 15L22.3349 11.25L26.6651 11.25L24.5 15Z" fill="#29CF96"/>
<path d="M24.5 35L22.3349 31.25L26.6651 31.25L24.5 35Z" fill="#29CF96"/>
<path d="M24.5 55L22.3349 51.25L26.6651 51.25L24.5 55Z" fill="#29CF96"/>
<path d="M24.5 75L22.3349 71.25L26.6651 71.25L24.5 75Z" fill="#29CF96"/>
<path d="M24.5 95L22.3349 91.25L26.6651 91.25L24.5 95Z" fill="#29CF96"/>
<path d="M24.5 115L22.3349 111.25L26.6651 111.25L24.5 115Z" fill="#29CF96"/>
<path d="M24.5 135L22.3349 131.25L26.6651 131.25L24.5 135Z" fill="#29CF96"/>
<path d="M24.5 155L22.3349 151.25L26.6651 151.25L24.5 155Z" fill="#29CF96"/>
<path d="M24.5 175L22.3349 171.25L26.6651 171.25L24.5 175Z" fill="#29CF96"/>
<path d="M24.5 195L22.3349 191.25L26.6651 191.25L24.5 195Z" fill="#29CF96"/>
<path d="M24.5 215L22.3349 211.25L26.6651 211.25L24.5 215Z" fill="#29CF96"/>
<path d="M24.5 235L22.3349 231.25L26.6651 231.25L24.5 235Z" fill="#29CF96"/>
<path d="M24.5 255L22.3349 251.25L26.6651 251.25L24.5 255Z" fill="#29CF96"/>
<path d="M24.5 275L22.3349 271.25L26.6651 271.25L24.5 275Z" fill="#29CF96"/>
<path d="M24.5 295L22.3349 291.25L26.6651 291.25L24.5 295Z" fill="#29CF96"/>
<path d="M24.5 315L22.3349 311.25L26.6651 311.25L24.5 315Z" fill="#29CF96"/>
<path d="M24.5 335L22.3349 331.25L26.6651 331.25L24.5 335Z" fill="#29CF96"/>
<path d="M24.5 355L22.3349 351.25L26.6651 351.25L24.5 355Z" fill="#29CF96"/>
<path d="M24.5 375L22.3349 371.25L26.6651 371.25L24.5 375Z" fill="#29CF96"/>
<path d="M407.5 0L409.665 3.75H405.335L407.5 0Z" fill="#29CF96"/>
<path d="M407.5 20L409.665 23.75H405.335L407.5 20Z" fill="#29CF96"/>
<path d="M407.5 40L409.665 43.75H405.335L407.5 40Z" fill="#29CF96"/>
<path d="M407.5 60L409.665 63.75H405.335L407.5 60Z" fill="#29CF96"/>
<path d="M407.5 80L409.665 83.75H405.335L407.5 80Z" fill="#29CF96"/>
<path d="M407.5 100L409.665 103.75H405.335L407.5 100Z" fill="#29CF96"/>
<path d="M407.5 120L409.665 123.75H405.335L407.5 120Z" fill="#29CF96"/>
<path d="M407.5 140L409.665 143.75H405.335L407.5 140Z" fill="#29CF96"/>
<path d="M407.5 160L409.665 163.75H405.335L407.5 160Z" fill="#29CF96"/>
<path d="M407.5 180L409.665 183.75H405.335L407.5 180Z" fill="#29CF96"/>
<path d="M407.5 200L409.665 203.75H405.335L407.5 200Z" fill="#29CF96"/>
<path d="M407.5 220L409.665 223.75H405.335L407.5 220Z" fill="#29CF96"/>
<path d="M407.5 240L409.665 243.75H405.335L407.5 240Z" fill="#29CF96"/>
<path d="M407.5 260L409.665 263.75H405.335L407.5 260Z" fill="#29CF96"/>
<path d="M407.5 280L409.665 283.75H405.335L407.5 280Z" fill="#29CF96"/>
<path d="M407.5 300L409.665 303.75H405.335L407.5 300Z" fill="#29CF96"/>
<path d="M407.5 320L409.665 323.75H405.335L407.5 320Z" fill="#29CF96"/>
<path d="M407.5 340L409.665 343.75H405.335L407.5 340Z" fill="#29CF96"/>
<path d="M407.5 360L409.665 363.75H405.335L407.5 360Z" fill="#29CF96"/>
<path d="M9.5 15L7.33494 11.25L11.6651 11.25L9.5 15Z" fill="#29CF96"/>
<path d="M9.5 35L7.33494 31.25L11.6651 31.25L9.5 35Z" fill="#29CF96"/>
<path d="M9.5 55L7.33494 51.25L11.6651 51.25L9.5 55Z" fill="#29CF96"/>
<path d="M9.5 75L7.33494 71.25L11.6651 71.25L9.5 75Z" fill="#29CF96"/>
<path d="M9.5 95L7.33494 91.25L11.6651 91.25L9.5 95Z" fill="#29CF96"/>
<path d="M9.5 115L7.33494 111.25L11.6651 111.25L9.5 115Z" fill="#29CF96"/>
<path d="M9.5 135L7.33494 131.25L11.6651 131.25L9.5 135Z" fill="#29CF96"/>
<path d="M9.5 155L7.33494 151.25L11.6651 151.25L9.5 155Z" fill="#29CF96"/>
<path d="M9.5 175L7.33494 171.25L11.6651 171.25L9.5 175Z" fill="#29CF96"/>
<path d="M9.5 195L7.33494 191.25L11.6651 191.25L9.5 195Z" fill="#29CF96"/>
<path d="M9.5 215L7.33494 211.25L11.6651 211.25L9.5 215Z" fill="#29CF96"/>
<path d="M9.5 235L7.33494 231.25L11.6651 231.25L9.5 235Z" fill="#29CF96"/>
<path d="M9.5 255L7.33494 251.25L11.6651 251.25L9.5 255Z" fill="#29CF96"/>
<path d="M9.5 275L7.33494 271.25L11.6651 271.25L9.5 275Z" fill="#29CF96"/>
<path d="M9.5 295L7.33494 291.25L11.6651 291.25L9.5 295Z" fill="#29CF96"/>
<path d="M9.5 315L7.33494 311.25L11.6651 311.25L9.5 315Z" fill="#29CF96"/>
<path d="M9.5 335L7.33494 331.25L11.6651 331.25L9.5 335Z" fill="#29CF96"/>
<path d="M9.5 355L7.33494 351.25L11.6651 351.25L9.5 355Z" fill="#29CF96"/>
<path d="M9.5 375L7.33494 371.25L11.6651 371.25L9.5 375Z" fill="#29CF96"/>
</svg>
