<svg width="56" height="25" viewBox="0 0 56 25" fill="none" xmlns="http://www.w3.org/2000/svg">
<rect y="12.5002" width="6.25" height="6.25" fill="#29CF96"/>
<rect x="6.25" y="18.7502" width="6.25" height="6.25" fill="#29CF96"/>
<rect x="6.25" y="6.25024" width="6.25" height="6.25" fill="#29CF96"/>
<rect y="0.000244141" width="6.25" height="6.25" fill="#29CF96"/>
<rect x="12.5" y="12.5002" width="6.25" height="6.25" fill="#29CF96"/>
<rect x="18.75" y="6.25024" width="6.25" height="6.25" fill="#29CF96"/>
<rect x="25" y="0.000244141" width="6.25" height="6.25" fill="#29CF96"/>
<rect x="25" y="12.5002" width="6.25" height="6.25" fill="#29CF96"/>
<rect x="18.75" y="18.7502" width="6.25" height="6.25" fill="#29CF96"/>
<rect x="24.5" y="12.5002" width="6.25" height="6.25" fill="#F068D4"/>
<rect x="30.75" y="18.7502" width="6.25" height="6.25" fill="#F068D4"/>
<rect x="30.75" y="6.25024" width="6.25" height="6.25" fill="#F068D4"/>
<rect x="24.5" y="0.000244141" width="6.25" height="6.25" fill="#F068D4"/>
<rect x="37" y="12.5002" width="6.25" height="6.25" fill="#F068D4"/>
<rect x="43.25" y="6.25024" width="6.25" height="6.25" fill="#F068D4"/>
<rect x="49.5" y="0.000244141" width="6.25" height="6.25" fill="#F068D4"/>
<rect x="49.5" y="12.5002" width="6.25" height="6.25" fill="#F068D4"/>
<rect x="43.25" y="18.7502" width="6.25" height="6.25" fill="#F068D4"/>
<rect x="12.25" y="12.5002" width="6.25" height="6.25" fill="#FFDA34"/>
<rect x="18.5" y="18.7502" width="6.25" height="6.25" fill="#FFDA34"/>
<rect x="18.5" y="6.25024" width="6.25" height="6.25" fill="#FFDA34"/>
<rect x="12.25" y="0.000244141" width="6.25" height="6.25" fill="#FFDA34"/>
<rect x="24.75" y="12.5002" width="6.25" height="6.25" fill="#FFDA34"/>
<rect x="31" y="6.25024" width="6.25" height="6.25" fill="#FFDA34"/>
<rect x="37.25" y="0.000244141" width="6.25" height="6.25" fill="#FFDA34"/>
<rect x="37.25" y="12.5002" width="6.25" height="6.25" fill="#FFDA34"/>
<rect x="31" y="18.7502" width="6.25" height="6.25" fill="#FFDA34"/>
</svg>
